<svg width="94" height="46" viewBox="0 0 94 46" fill="none" xmlns="http://www.w3.org/2000/svg">
<path d="M25.3431 25.9861V21.8904C25.3431 21.6062 25.4427 21.3645 25.642 21.1653C25.8412 20.9631 26.0829 20.862 26.3671 20.862H30.2562V21.9519H26.8373C26.7523 21.9519 26.6791 21.9826 26.6175 22.0442C26.5589 22.1057 26.5296 22.1775 26.5296 22.2595V25.6081C26.5296 25.6931 26.5589 25.7649 26.6175 25.8235C26.6791 25.882 26.7523 25.9113 26.8373 25.9113H28.9598C29.0448 25.9113 29.1166 25.882 29.1752 25.8235C29.2367 25.7649 29.2674 25.6931 29.2674 25.6081V24.4612H27.7997V23.3757H30.4628V25.9861C30.4628 26.2644 30.3617 26.5031 30.1595 26.7024C29.9603 26.9016 29.7186 27.0012 29.4344 27.0012H26.3671C26.0829 27.0012 25.8412 26.9016 25.642 26.7024C25.4427 26.5031 25.3431 26.2644 25.3431 25.9861ZM31.6361 27.0012V20.862H35.9383V21.9519H32.8358V23.3933H35.3275V24.4831H32.8358V25.9113H35.9383V27.0012H31.6361ZM36.7953 27.0012V20.862H41.0975V21.9519H37.995V23.3933H40.4867V24.4831H37.995V27.0012H36.7953ZM41.8666 25.9861V21.8904C41.8666 21.6062 41.9662 21.3645 42.1654 21.1653C42.3646 20.9631 42.6034 20.862 42.8817 20.862H45.9579C46.2362 20.862 46.475 20.9631 46.6742 21.1653C46.8763 21.3645 46.9774 21.6062 46.9774 21.8904V25.9861C46.9774 26.2673 46.8778 26.5075 46.6786 26.7068C46.4794 26.903 46.2391 27.0012 45.9579 27.0012H42.8817C42.6004 27.0012 42.3602 26.903 42.161 26.7068C41.9647 26.5075 41.8666 26.2673 41.8666 25.9861ZM43.0531 25.6081C43.0531 25.6931 43.0824 25.7649 43.141 25.8235C43.2025 25.882 43.2757 25.9113 43.3607 25.9113H45.4833C45.5682 25.9113 45.64 25.882 45.6986 25.8235C45.7601 25.7649 45.7909 25.6931 45.7909 25.6081V22.2683C45.7909 22.1833 45.7601 22.1101 45.6986 22.0486C45.64 21.9841 45.5682 21.9519 45.4833 21.9519H43.3607C43.2757 21.9519 43.2025 21.9841 43.141 22.0486C43.0824 22.1101 43.0531 22.1833 43.0531 22.2683V25.6081ZM48.0541 27.0012V20.862H51.7367C52.0209 20.862 52.2626 20.9631 52.4618 21.1653C52.661 21.3645 52.7606 21.6062 52.7606 21.8904V23.4724C52.7606 23.7566 52.661 23.9997 52.4618 24.2019C52.2626 24.4011 52.0209 24.5007 51.7367 24.5007H51.662L53.1649 27.0012H51.8817L50.3656 24.5007H49.2406V27.0012H48.0541ZM49.2406 23.4109H51.2401C51.3251 23.4109 51.3968 23.3816 51.4554 23.323C51.517 23.2614 51.5477 23.1882 51.5477 23.1032V22.2683C51.5477 22.1833 51.517 22.1101 51.4554 22.0486C51.3968 21.9841 51.3251 21.9519 51.2401 21.9519H49.2406V23.4109ZM53.8461 25.9861V21.8904C53.8461 21.6062 53.9457 21.3645 54.1449 21.1653C54.3441 20.9631 54.5858 20.862 54.87 20.862H57.9374V21.9519H55.3402C55.2552 21.9519 55.182 21.9826 55.1205 22.0442C55.0619 22.1057 55.0326 22.1775 55.0326 22.2595V25.6081C55.0326 25.6931 55.0619 25.7649 55.1205 25.8235C55.182 25.882 55.2552 25.9113 55.3402 25.9113H57.9374V27.0012H54.87C54.5858 27.0012 54.3441 26.9016 54.1449 26.7024C53.9457 26.5031 53.8461 26.2644 53.8461 25.9861ZM58.9701 27.0012V20.862H63.2723V21.9519H60.1698V23.3933H62.6615V24.4831H60.1698V25.9113H63.2723V27.0012H58.9701ZM66.1068 26.9924V20.8532H67.3329L70.1014 24.9314V20.8532H71.2923V26.9924H70.0663L67.2933 22.9231V26.9924H66.1068ZM72.3734 25.9861V21.8904C72.3734 21.6062 72.473 21.3645 72.6722 21.1653C72.8714 20.9631 73.1102 20.862 73.3885 20.862H76.4647C76.743 20.862 76.9818 20.9631 77.181 21.1653C77.3832 21.3645 77.4842 21.6062 77.4842 21.8904V25.9861C77.4842 26.2673 77.3846 26.5075 77.1854 26.7068C76.9862 26.903 76.746 27.0012 76.4647 27.0012H73.3885C73.1073 27.0012 72.8671 26.903 72.6678 26.7068C72.4715 26.5075 72.3734 26.2673 72.3734 25.9861ZM73.5599 25.6081C73.5599 25.6931 73.5892 25.7649 73.6478 25.8235C73.7093 25.882 73.7826 25.9113 73.8675 25.9113H75.9901C76.0751 25.9113 76.1468 25.882 76.2054 25.8235C76.267 25.7649 76.2977 25.6931 76.2977 25.6081V22.2683C76.2977 22.1833 76.267 22.1101 76.2054 22.0486C76.1468 21.9841 76.0751 21.9519 75.9901 21.9519H73.8675C73.7826 21.9519 73.7093 21.9841 73.6478 22.0486C73.5892 22.1101 73.5599 22.1833 73.5599 22.2683V25.6081ZM78.0204 20.8532H79.3519L80.5516 25.0412L81.7381 20.8532H82.7445L84.0145 25.0412L85.1395 20.8532H86.3656L84.5111 27.0012H83.4652L82.2171 23.0417L81.035 27.0012H79.9935L78.0204 20.8532Z" fill="white"/>
<g clip-path="url(#clip0)">
<path d="M61.7226 15.2759V15.1104H61.8303C61.8873 15.1104 61.9697 15.1165 61.9697 15.184C61.9697 15.2514 61.9253 15.2759 61.8557 15.2759H61.7226ZM61.7226 15.3924H61.7987L61.9697 15.6805H62.1534L61.9634 15.3801C62.0584 15.3863 62.1344 15.3188 62.1407 15.2269V15.2024C62.1407 15.043 62.0267 14.9939 61.8367 14.9939H61.5643V15.6805H61.7226V15.3924ZM62.5208 15.3372C62.5208 14.9326 62.1977 14.6997 61.8367 14.6997C61.4756 14.6997 61.1525 14.9326 61.1525 15.3372C61.1525 15.7418 61.4756 15.9748 61.8367 15.9748C62.1977 15.9748 62.5208 15.7418 62.5208 15.3372ZM62.3181 15.3372C62.3308 15.5947 62.1217 15.8154 61.8557 15.8276H61.8367C61.5579 15.8399 61.3236 15.6253 61.3109 15.3556C61.2982 15.0859 61.5199 14.8591 61.7987 14.8468C62.0774 14.8345 62.3118 15.0491 62.3244 15.3188C62.3181 15.325 62.3181 15.3311 62.3181 15.3372Z" fill="black"/>
<path d="M37.4042 8.52651V15.7602H39.5137V8.52651H37.4042ZM20.8077 8.51425V15.7541H22.9361V10.1326L24.5957 10.1388C25.1405 10.1388 25.5206 10.2675 25.7803 10.5372C26.116 10.8805 26.2491 11.4384 26.2491 12.4499V15.7541H28.3141V11.7571C28.3141 8.90046 26.4328 8.51425 24.5957 8.51425H20.8077ZM40.8059 8.52651V15.7602H44.2266C46.0509 15.7602 46.6464 15.4659 47.2862 14.81C47.7423 14.3502 48.0336 13.3326 48.0336 12.223C48.0336 11.2054 47.7866 10.2981 47.3495 9.73417C46.5767 8.72268 45.4491 8.52651 43.7641 8.52651H40.8059ZM42.8963 10.0959H43.8022C45.1197 10.0959 45.9686 10.666 45.9686 12.1495C45.9686 13.633 45.1197 14.2092 43.8022 14.2092H42.8963V10.0959ZM34.3637 8.52651L32.6026 14.2583L30.9176 8.52651H28.6372L31.0443 15.7602H34.0849L36.5174 8.52651H34.3637ZM49.0218 15.7602H51.1313V8.52651H49.0218V15.7602ZM54.9383 8.52651L51.9928 15.7541H54.0705L54.5392 14.4728H58.0233L58.4667 15.7479H60.7281L57.7572 8.52651H54.9383ZM56.3066 9.84451L57.5862 13.2284H54.989L56.3066 9.84451Z" fill="black"/>
<path d="M7.19469 9.72806V8.73496C7.29604 8.72883 7.39739 8.7227 7.49874 8.7227C10.3113 8.63688 12.1547 11.0644 12.1547 11.0644C12.1547 11.0644 10.1656 13.7372 8.03085 13.7372C7.74579 13.7372 7.46707 13.6943 7.20102 13.6085V10.5924C8.2969 10.7212 8.51861 11.1871 9.17107 12.2476L10.6344 11.0583C10.6344 11.0583 9.56381 9.70354 7.7648 9.70354C7.57476 9.69741 7.38472 9.70967 7.19469 9.72806ZM7.19469 6.44226V7.92577L7.49874 7.90738C11.4072 7.77865 13.96 11.0093 13.96 11.0093C13.96 11.0093 11.0334 14.4545 7.98651 14.4545C7.72046 14.4545 7.46074 14.4299 7.20102 14.387V15.3066C7.4164 15.3311 7.63811 15.3495 7.85348 15.3495C10.6914 15.3495 12.7438 13.9457 14.7328 12.2905C15.0622 12.548 16.4115 13.1671 16.6902 13.4368C14.8025 14.9694 10.4 16.2016 7.90416 16.2016C7.66344 16.2016 7.4354 16.1893 7.20736 16.1648V17.4583H17.9888V6.44226H7.19469V6.44226ZM7.19469 13.6085V14.3932C4.57218 13.9395 3.8437 11.2974 3.8437 11.2974C3.8437 11.2974 5.10428 9.94875 7.19469 9.72806V10.5863H7.18835C6.09247 10.4576 5.23097 11.4507 5.23097 11.4507C5.23097 11.4507 5.71873 13.1242 7.19469 13.6085ZM2.53878 11.1871C2.53878 11.1871 4.09075 8.96791 7.20102 8.73496V7.92577C3.75502 8.1955 0.777771 11.0154 0.777771 11.0154C0.777771 11.0154 2.46277 15.7357 7.19469 16.1648V15.3066C3.72334 14.8897 2.53878 11.1871 2.53878 11.1871Z" fill="#76B900"/>
</g>
<defs>
<clipPath id="clip0">
<rect width="61.743" height="23.9005" fill="white" transform="translate(0.777771)"/>
</clipPath>
</defs>
</svg>
