<svg width="27" height="28" viewBox="0 0 27 28" fill="none" xmlns="http://www.w3.org/2000/svg">
<g clip-path="url(#clip0)">
<path d="M0.566796 18.027C2.23465 23.7964 7.39397 28 13.5001 28C20.9558 28 27.0001 21.7318 27.0001 14C27.0001 6.26803 20.9558 0 13.5001 0C6.3456 0 0.491474 5.77173 0.0291138 13.0699C0.902743 14.5912 1.24365 15.5322 0.566923 18.027H0.566796Z" fill="url(#paint0_linear)"/>
<path d="M12.8057 10.4936C12.8057 10.5172 12.8057 10.5407 12.8069 10.5629L9.50338 15.5394C8.96824 15.5142 8.43126 15.6115 7.92208 15.829C7.69762 15.924 7.4873 16.0405 7.28996 16.1751L0.0359978 13.0783C0.0360546 13.0783 -0.131854 15.942 0.567654 18.0762L5.6958 20.2706C5.95328 21.4639 6.74266 22.5106 7.90725 23.0141C9.81266 23.8397 12.0096 22.8987 12.8022 20.9219C13.0085 20.4052 13.1047 19.8632 13.0908 19.3224L17.8175 15.8194C17.8558 15.8206 17.8952 15.8218 17.9334 15.8218C20.762 15.8218 23.0611 13.4304 23.0611 10.4936C23.0611 7.55664 20.762 5.16739 17.9334 5.16739C15.1059 5.16739 12.8057 7.55664 12.8057 10.4936ZM12.0131 20.5782C11.3996 22.1056 9.7071 22.8302 8.23588 22.1945C7.55718 21.9013 7.04476 21.3641 6.74915 20.7236L8.4184 21.441C9.50338 21.9097 10.7482 21.3761 11.1992 20.2513C11.6516 19.1253 11.1383 17.8323 10.0539 17.3636L8.32836 16.6222C8.9942 16.3602 9.75113 16.3506 10.4583 16.6558C11.1714 16.9634 11.7246 17.5427 12.0177 18.2829C12.3109 19.0232 12.3098 19.8404 12.0131 20.5782ZM17.9334 14.0433C16.0504 14.0433 14.5173 12.451 14.5173 10.4936C14.5173 8.53784 16.0504 6.94509 17.9334 6.94509C19.8176 6.94509 21.3507 8.53784 21.3507 10.4936C21.3507 12.451 19.8176 14.0433 17.9334 14.0433ZM15.3736 10.4882C15.3736 9.01577 16.5231 7.8215 17.9392 7.8215C19.3564 7.8215 20.5059 9.01577 20.5059 10.4882C20.5059 11.9608 19.3564 13.154 17.9392 13.154C16.5231 13.154 15.3736 11.9608 15.3736 10.4882Z" fill="white"/>
</g>
<defs>
<linearGradient id="paint0_linear" x1="13.5146" y1="0" x2="13.5146" y2="28" gradientUnits="userSpaceOnUse">
<stop stop-color="#111D2E"/>
<stop offset="0.21248" stop-color="#051839"/>
<stop offset="0.40695" stop-color="#0A1B48"/>
<stop offset="0.5811" stop-color="#132E62"/>
<stop offset="0.7376" stop-color="#144B7E"/>
<stop offset="0.87279" stop-color="#136497"/>
<stop offset="1" stop-color="#1387B8"/>
</linearGradient>
<clipPath id="clip0">
<rect width="27" height="28" fill="white"/>
</clipPath>
</defs>
</svg>
