<?xml version="1.0" encoding="UTF-8"?>
<svg xmlns="http://www.w3.org/2000/svg" xmlns:xlink="http://www.w3.org/1999/xlink" width="200pt" height="54pt" viewBox="0 0 200 54" version="1.1">
<g id="surface1">
<path style=" stroke:none;fill-rule:nonzero;fill:rgb(6.27451%,66.666667%,31.372549%);fill-opacity:1;" d="M 24.191406 21.660156 C 21.441406 9.503906 15.707031 6.269531 14.246094 3.980469 C 13.640625 2.972656 13.109375 1.925781 12.644531 0.84375 C 12.570312 1.925781 12.425781 2.605469 11.511719 3.421875 C 9.671875 5.066406 1.855469 11.445312 1.199219 25.257812 C 0.585938 38.136719 10.648438 46.078125 11.980469 46.902344 C 13 47.40625 14.246094 46.910156 14.855469 46.449219 C 19.707031 43.113281 26.335938 34.222656 24.199219 21.660156 "/>
<path style=" stroke:none;fill-rule:nonzero;fill:rgb(72.156863%,76.862745%,76.078431%);fill-opacity:1;" d="M 13.0625 40.042969 C 12.808594 43.230469 12.628906 45.082031 11.984375 46.90625 C 11.984375 46.90625 12.40625 49.9375 12.703125 53.152344 L 13.753906 53.152344 C 14.003906 50.890625 14.386719 48.644531 14.898438 46.421875 C 13.539062 45.753906 13.113281 42.839844 13.0625 40.042969 Z M 13.0625 40.042969 "/>
<path style=" stroke:none;fill-rule:nonzero;fill:rgb(7.058824%,57.254902%,30.980392%);fill-opacity:1;" d="M 14.894531 46.425781 C 13.523438 45.789062 13.125 42.816406 13.066406 40.042969 C 13.402344 35.46875 13.503906 30.882812 13.359375 26.300781 C 13.289062 23.894531 13.394531 4.027344 12.769531 1.117188 C 13.199219 2.101562 13.691406 3.058594 14.246094 3.976562 C 15.707031 6.269531 21.445312 9.503906 24.191406 21.660156 C 26.335938 34.199219 19.742188 43.070312 14.894531 46.425781 Z M 14.894531 46.425781 "/>
<path style=" stroke:none;fill-rule:nonzero;fill:rgb(12.941176%,19.215686%,23.529412%);fill-opacity:1;" d="M 195.847656 42.03125 C 194.207031 42.03125 192.875 40.703125 192.867188 39.058594 C 192.859375 37.414062 194.179688 36.074219 195.820312 36.058594 C 197.460938 36.042969 198.804688 37.359375 198.828125 39.003906 C 198.851562 39.804688 198.546875 40.582031 197.984375 41.152344 C 197.421875 41.722656 196.648438 42.039062 195.847656 42.03125 M 195.847656 36.328125 C 194.75 36.320312 193.753906 36.976562 193.328125 37.992188 C 192.902344 39.003906 193.128906 40.175781 193.902344 40.957031 C 194.675781 41.738281 195.84375 41.976562 196.859375 41.558594 C 197.875 41.144531 198.539062 40.152344 198.542969 39.054688 C 198.558594 38.332031 198.277344 37.632812 197.769531 37.121094 C 197.261719 36.605469 196.570312 36.320312 195.847656 36.328125 M 196.566406 40.933594 L 195.796875 39.269531 L 195.179688 39.269531 L 195.179688 40.933594 L 194.726562 40.933594 L 194.726562 37.152344 L 195.839844 37.152344 C 196.667969 37.152344 197.011719 37.511719 197.011719 38.207031 C 197.011719 38.761719 196.753906 39.109375 196.265625 39.214844 L 197.0625 40.925781 Z M 195.195312 38.878906 L 195.847656 38.878906 C 196.375 38.878906 196.578125 38.699219 196.578125 38.21875 C 196.578125 37.734375 196.386719 37.570312 195.789062 37.570312 L 195.195312 37.570312 Z M 195.195312 38.878906 "/>
<path style=" stroke:none;fill-rule:nonzero;fill:rgb(12.941176%,19.215686%,23.529412%);fill-opacity:1;" d="M 151.480469 39.308594 C 152.285156 39.953125 153.898438 40.222656 155.320312 40.222656 C 157.160156 40.222656 158.96875 39.878906 160.730469 38.28125 C 162.527344 36.644531 163.765625 34.140625 163.765625 30.144531 C 163.765625 26.304688 162.304688 23.1875 159.3125 21.359375 C 157.625 20.296875 155.433594 19.878906 152.9375 19.878906 C 152.21875 19.878906 151.480469 19.914062 151.058594 20.105469 C 150.886719 20.242188 150.765625 20.433594 150.710938 20.644531 C 150.636719 21.328125 150.636719 26.539062 150.636719 29.617188 C 150.636719 32.777344 150.636719 37.179688 150.710938 37.71875 C 150.753906 38.175781 150.980469 38.980469 151.480469 39.316406 M 143.816406 18.167969 C 144.46875 18.167969 146.949219 18.28125 148.101562 18.28125 C 150.257812 18.28125 151.75 18.167969 155.78125 18.167969 C 159.15625 18.167969 162 19.078125 164.035156 20.828125 C 166.492188 22.960938 167.808594 25.921875 167.808594 29.535156 C 167.808594 34.667969 165.472656 37.636719 163.121094 39.308594 C 160.785156 41.058594 157.746094 42.046875 153.417969 42.046875 C 151.113281 42.046875 147.160156 41.96875 143.859375 41.933594 L 143.789062 41.933594 C 143.636719 41.628906 144.074219 40.441406 144.34375 40.410156 C 145.242188 40.3125 145.476562 40.273438 145.890625 40.105469 C 146.589844 39.816406 146.753906 39.460938 146.828125 38.207031 C 146.945312 35.847656 146.90625 33.035156 146.90625 29.839844 C 146.90625 27.558594 146.945312 23.109375 146.867188 21.703125 C 146.753906 20.527344 146.257812 20.222656 145.25 19.992188 C 144.539062 19.839844 143.820312 19.726562 143.09375 19.652344 C 143.019531 19.421875 143.609375 18.390625 143.800781 18.167969 "/>
<path style=" stroke:none;fill-rule:nonzero;fill:rgb(12.941176%,19.215686%,23.529412%);fill-opacity:1;" d="M 177.320312 20.097656 C 177.167969 20.136719 176.976562 20.515625 176.976562 20.707031 C 176.9375 22.074219 176.898438 25.648438 176.898438 28.121094 C 176.917969 28.214844 176.996094 28.292969 177.089844 28.308594 C 177.589844 28.347656 178.820312 28.386719 179.855469 28.386719 C 181.316406 28.386719 182.160156 28.195312 182.617188 27.96875 C 183.847656 27.359375 184.414062 26.027344 184.414062 24.585938 C 184.414062 21.277344 182.113281 20.019531 178.695312 20.019531 C 178.234375 20.015625 177.773438 20.039062 177.316406 20.097656 M 186.03125 35.308594 C 186.03125 31.960938 183.570312 30.058594 179.078125 30.058594 C 178.886719 30.058594 177.460938 30.023438 177.121094 30.097656 C 177.007812 30.136719 176.890625 30.210938 176.890625 30.289062 C 176.890625 32.683594 176.851562 36.523438 176.96875 38.042969 C 177.046875 38.691406 177.507812 39.605469 178.082031 39.871094 C 178.695312 40.210938 180.078125 40.289062 181.039062 40.289062 C 183.6875 40.289062 186.03125 38.804688 186.03125 35.308594 M 170.386719 18.234375 C 170.730469 18.234375 171.753906 18.347656 174.363281 18.347656 C 176.820312 18.347656 178.816406 18.273438 181.191406 18.273438 C 184.148438 18.273438 188.214844 19.335938 188.214844 23.746094 C 188.214844 25.90625 186.683594 27.664062 184.683594 28.5 C 184.570312 28.539062 184.570312 28.613281 184.683594 28.652344 C 187.527344 29.371094 190.019531 31.125 190.019531 34.46875 C 190.019531 37.742188 187.988281 39.792969 185.03125 41.085938 C 183.234375 41.886719 181 42.152344 178.742188 42.152344 C 177.015625 42.152344 172.386719 41.96875 169.8125 42 C 169.542969 41.886719 170.058594 40.667969 170.289062 40.476562 C 170.878906 40.460938 171.460938 40.367188 172.03125 40.203125 C 172.949219 39.976562 173.058594 39.679688 173.175781 38.3125 C 173.25 37.132812 173.25 32.910156 173.25 29.90625 C 173.25 25.800781 173.292969 23.027344 173.25 21.65625 C 173.214844 20.59375 172.828125 20.25 172.101562 20.058594 C 171.523438 19.945312 170.566406 19.832031 169.796875 19.71875 C 169.605469 19.527344 170.195312 18.386719 170.386719 18.234375 "/>
<path style=" stroke:none;fill-rule:nonzero;fill:rgb(12.941176%,19.215686%,23.529412%);fill-opacity:1;" d="M 32.695312 42.03125 C 32.59375 41.785156 32.554688 41.523438 32.578125 41.261719 C 32.570312 41.082031 32.609375 40.90625 32.695312 40.75 C 33.191406 40.675781 33.683594 40.578125 34.167969 40.449219 C 34.847656 40.277344 35.101562 39.90625 35.140625 39.039062 C 35.253906 36.988281 35.261719 33.144531 35.222656 30.441406 L 35.222656 30.359375 C 35.222656 30.070312 35.222656 29.671875 34.863281 29.394531 C 34.230469 28.996094 33.542969 28.695312 32.824219 28.492188 C 32.503906 28.398438 32.324219 28.230469 32.335938 28.03125 C 32.34375 27.832031 32.546875 27.597656 32.964844 27.515625 C 34.078125 27.402344 36.992188 26.707031 38.136719 26.175781 C 38.253906 26.332031 38.308594 26.523438 38.289062 26.71875 C 38.289062 26.835938 38.273438 26.960938 38.257812 27.09375 C 38.226562 27.472656 38.191406 27.90625 38.191406 28.339844 C 38.207031 28.445312 38.28125 28.535156 38.382812 28.570312 C 38.484375 28.605469 38.597656 28.578125 38.671875 28.503906 C 40.851562 26.792969 42.804688 26.179688 43.808594 26.179688 C 45.453125 26.179688 46.738281 26.96875 47.730469 28.59375 C 47.777344 28.671875 47.863281 28.722656 47.953125 28.722656 C 48.039062 28.722656 48.117188 28.683594 48.164062 28.613281 C 50.167969 27.089844 52.152344 26.179688 53.480469 26.179688 C 56.621094 26.179688 58.5 28.539062 58.5 32.480469 C 58.5 33.613281 58.488281 35.054688 58.480469 36.394531 C 58.46875 37.570312 58.460938 38.675781 58.460938 39.4375 C 58.460938 39.617188 58.707031 40.136719 59.082031 40.238281 C 59.539062 40.464844 60.203125 40.578125 61.042969 40.722656 L 61.074219 40.722656 C 61.136719 40.949219 61.003906 41.832031 60.878906 42.011719 C 60.667969 42.011719 60.382812 41.992188 60.023438 41.972656 C 59.371094 41.941406 58.476562 41.898438 57.433594 41.898438 C 55.347656 41.898438 54.257812 41.9375 53.214844 42.003906 C 53.136719 41.742188 53.109375 40.902344 53.203125 40.726562 C 53.632812 40.65625 54.0625 40.5625 54.484375 40.445312 C 55.148438 40.226562 55.339844 39.925781 55.382812 39.039062 C 55.398438 38.410156 55.515625 32.878906 55.304688 31.5625 C 55.105469 30.199219 54.082031 28.605469 51.839844 28.605469 C 51.007812 28.605469 49.667969 28.953125 48.386719 29.925781 C 48.308594 30.015625 48.261719 30.128906 48.261719 30.25 L 48.261719 30.277344 C 48.414062 30.988281 48.414062 31.816406 48.414062 33.066406 C 48.414062 33.785156 48.414062 34.535156 48.402344 35.289062 C 48.394531 36.8125 48.386719 38.253906 48.414062 39.34375 C 48.414062 40.085938 48.859375 40.261719 49.222656 40.40625 C 49.417969 40.449219 49.570312 40.484375 49.726562 40.523438 C 50.027344 40.59375 50.339844 40.671875 50.804688 40.746094 C 50.875 41.0625 50.867188 41.390625 50.789062 41.703125 C 50.769531 41.820312 50.722656 41.929688 50.652344 42.027344 C 49.492188 41.988281 48.300781 41.953125 46.582031 41.953125 C 46.058594 41.953125 45.210938 41.976562 44.460938 41.996094 C 43.851562 42.011719 43.273438 42.027344 42.949219 42.03125 C 42.859375 41.820312 42.820312 41.59375 42.832031 41.367188 C 42.816406 41.152344 42.855469 40.941406 42.953125 40.75 L 43.414062 40.664062 C 43.816406 40.59375 44.167969 40.53125 44.492188 40.449219 C 45.0625 40.269531 45.273438 39.957031 45.316406 39.234375 C 45.425781 37.539062 45.515625 32.664062 45.273438 31.445312 C 44.867188 29.484375 43.757812 28.492188 41.964844 28.492188 C 40.917969 28.492188 39.59375 28.996094 38.511719 29.808594 C 38.300781 30.015625 38.1875 30.296875 38.195312 30.59375 C 38.195312 31.175781 38.195312 31.867188 38.195312 32.605469 C 38.195312 35.054688 38.179688 38.101562 38.238281 39.421875 C 38.273438 39.828125 38.417969 40.308594 39.179688 40.484375 C 39.34375 40.535156 39.632812 40.582031 39.964844 40.636719 C 40.160156 40.667969 40.371094 40.703125 40.585938 40.742188 C 40.65625 41.175781 40.621094 41.617188 40.484375 42.03125 C 40.148438 42.03125 39.738281 42.007812 39.269531 41.988281 C 38.550781 41.957031 37.652344 41.917969 36.636719 41.917969 C 35.433594 41.917969 34.597656 41.957031 33.929688 41.988281 C 33.476562 42.011719 33.089844 42.027344 32.699219 42.03125 "/>
<path style=" stroke:none;fill-rule:nonzero;fill:rgb(12.941176%,19.215686%,23.529412%);fill-opacity:1;" d="M 71.230469 27.808594 C 70.582031 27.792969 69.945312 27.972656 69.398438 28.324219 C 68.0625 29.136719 67.382812 30.757812 67.382812 33.140625 C 67.382812 37.601562 69.613281 40.71875 72.808594 40.71875 C 73.664062 40.746094 74.5 40.449219 75.148438 39.886719 C 76.128906 39.085938 76.648438 37.449219 76.648438 35.15625 C 76.648438 30.761719 74.46875 27.808594 71.226562 27.808594 M 71.839844 42.371094 C 66.074219 42.371094 64.019531 38.132812 64.019531 34.167969 C 64.019531 31.398438 65.148438 29.230469 67.378906 27.730469 C 68.941406 26.761719 70.734375 26.230469 72.570312 26.191406 C 76.972656 26.191406 80.046875 29.363281 80.046875 33.902344 C 80.046875 36.988281 78.820312 39.425781 76.496094 40.949219 C 75.378906 41.632812 73.441406 42.371094 71.839844 42.371094 "/>
<path style=" stroke:none;fill-rule:nonzero;fill:rgb(12.941176%,19.215686%,23.529412%);fill-opacity:1;" d="M 129.953125 27.808594 C 129.304688 27.792969 128.664062 27.972656 128.117188 28.324219 C 126.785156 29.136719 126.105469 30.757812 126.105469 33.140625 C 126.105469 37.601562 128.335938 40.71875 131.527344 40.71875 C 132.386719 40.746094 133.226562 40.449219 133.875 39.886719 C 134.855469 39.085938 135.375 37.449219 135.375 35.15625 C 135.375 30.761719 133.199219 27.808594 129.953125 27.808594 M 130.570312 42.371094 C 124.800781 42.371094 122.746094 38.132812 122.746094 34.167969 C 122.746094 31.394531 123.875 29.230469 126.109375 27.730469 C 127.667969 26.761719 129.460938 26.230469 131.296875 26.191406 C 135.699219 26.191406 138.773438 29.363281 138.773438 33.902344 C 138.773438 36.988281 137.546875 39.425781 135.222656 40.945312 C 134.105469 41.632812 132.167969 42.371094 130.570312 42.371094 "/>
<path style=" stroke:none;fill-rule:nonzero;fill:rgb(12.941176%,19.215686%,23.529412%);fill-opacity:1;" d="M 110.53125 27.65625 C 108.753906 27.65625 107.605469 29.0625 107.605469 31.238281 C 107.605469 33.414062 108.59375 36 111.378906 36 C 111.855469 36 112.722656 35.789062 113.152344 35.316406 C 113.800781 34.71875 114.230469 33.488281 114.230469 32.1875 C 114.230469 29.351562 112.851562 27.65625 110.542969 27.65625 M 110.3125 42.675781 C 109.808594 42.671875 109.316406 42.792969 108.875 43.035156 C 107.46875 43.9375 106.816406 44.835938 106.816406 45.882812 C 106.816406 46.859375 107.195312 47.640625 108.011719 48.332031 C 109 49.171875 110.332031 49.578125 112.082031 49.578125 C 115.53125 49.578125 117.078125 47.722656 117.078125 45.882812 C 117.078125 44.601562 116.4375 43.742188 115.113281 43.253906 C 114.097656 42.882812 112.398438 42.679688 110.316406 42.679688 M 110.546875 51.496094 C 108.476562 51.496094 106.984375 51.0625 105.710938 50.078125 C 104.472656 49.121094 103.914062 47.699219 103.914062 46.714844 C 103.929688 46.082031 104.167969 45.476562 104.59375 45.003906 C 104.953125 44.59375 105.789062 43.828125 107.71875 42.496094 C 107.78125 42.46875 107.820312 42.410156 107.820312 42.34375 C 107.824219 42.269531 107.773438 42.203125 107.699219 42.183594 C 106.109375 41.574219 105.628906 40.566406 105.484375 40.023438 C 105.484375 40.003906 105.484375 39.972656 105.46875 39.941406 C 105.421875 39.726562 105.378906 39.527344 105.667969 39.320312 C 105.890625 39.160156 106.246094 38.949219 106.628906 38.722656 C 107.164062 38.425781 107.679688 38.089844 108.171875 37.71875 C 108.226562 37.660156 108.25 37.582031 108.234375 37.503906 C 108.222656 37.425781 108.175781 37.359375 108.105469 37.320312 C 105.753906 36.527344 104.566406 34.777344 104.566406 32.101562 C 104.550781 30.40625 105.363281 28.8125 106.742188 27.828125 C 107.6875 27.078125 110.066406 26.175781 111.605469 26.175781 L 111.695312 26.175781 C 113.277344 26.214844 114.171875 26.546875 115.40625 27.003906 C 116.109375 27.261719 116.855469 27.378906 117.605469 27.355469 C 118.914062 27.355469 119.488281 26.9375 119.980469 26.453125 C 120.058594 26.671875 120.101562 26.902344 120.105469 27.136719 C 120.136719 27.6875 119.984375 28.238281 119.675781 28.699219 C 119.410156 29.070312 118.777344 29.339844 118.203125 29.339844 C 118.144531 29.339844 118.085938 29.339844 118.023438 29.332031 C 117.71875 29.308594 117.417969 29.257812 117.125 29.179688 L 116.976562 29.234375 C 116.929688 29.300781 116.960938 29.378906 117 29.476562 C 117.007812 29.492188 117.015625 29.515625 117.019531 29.535156 C 117.125 30.015625 117.195312 30.503906 117.234375 30.992188 C 117.234375 33.792969 116.132812 35.011719 114.941406 35.914062 C 113.789062 36.78125 112.421875 37.308594 110.988281 37.445312 C 110.957031 37.445312 110.808594 37.460938 110.527344 37.484375 C 110.347656 37.5 110.113281 37.523438 110.078125 37.523438 L 110.046875 37.523438 C 109.785156 37.59375 109.113281 37.917969 109.113281 38.515625 C 109.113281 39.011719 109.417969 39.628906 110.878906 39.742188 L 111.824219 39.808594 C 113.75 39.945312 116.15625 40.109375 117.289062 40.496094 C 118.828125 41.039062 119.847656 42.507812 119.816406 44.144531 C 119.816406 46.652344 118.035156 49.015625 115.046875 50.460938 C 113.640625 51.132812 112.101562 51.480469 110.539062 51.472656 "/>
<path style=" stroke:none;fill-rule:nonzero;fill:rgb(12.941176%,19.215686%,23.529412%);fill-opacity:1;" d="M 101.71875 40.691406 C 100.871094 40.578125 100.257812 40.460938 99.527344 40.121094 C 99.386719 39.972656 99.292969 39.785156 99.257812 39.582031 C 99.179688 38.402344 99.179688 34.980469 99.179688 32.738281 C 99.179688 30.914062 98.875 29.320312 98.101562 28.175781 C 97.179688 26.882812 95.875 26.125 94.1875 26.125 C 92.691406 26.125 90.695312 27.148438 89.046875 28.558594 C 89.003906 28.59375 88.753906 28.835938 88.757812 28.460938 C 88.761719 28.085938 88.820312 27.328125 88.855469 26.839844 C 88.886719 26.578125 88.796875 26.316406 88.605469 26.136719 C 87.527344 26.675781 84.503906 27.394531 83.382812 27.503906 C 82.566406 27.664062 82.359375 28.449219 83.230469 28.722656 L 83.246094 28.722656 C 83.941406 28.914062 84.609375 29.207031 85.222656 29.59375 C 85.566406 29.859375 85.527344 30.238281 85.527344 30.542969 C 85.566406 33.089844 85.566406 37.007812 85.449219 39.136719 C 85.414062 39.972656 85.179688 40.277344 84.566406 40.429688 L 84.625 40.410156 C 84.15625 40.527344 83.683594 40.617188 83.203125 40.679688 C 83.011719 40.867188 83.011719 41.96875 83.203125 42.199219 C 83.585938 42.199219 85.539062 42.085938 87.15625 42.085938 C 89.382812 42.085938 90.53125 42.199219 91.109375 42.199219 C 91.339844 41.933594 91.417969 40.90625 91.265625 40.679688 C 90.734375 40.652344 90.203125 40.578125 89.6875 40.449219 C 89.074219 40.296875 88.921875 39.992188 88.882812 39.308594 C 88.808594 37.519531 88.808594 33.71875 88.808594 31.132812 C 88.808594 30.414062 89 30.070312 89.226562 29.871094 C 89.996094 29.1875 91.265625 28.734375 92.375 28.734375 C 93.453125 28.734375 94.171875 29.074219 94.710938 29.53125 C 95.339844 30.078125 95.734375 30.847656 95.8125 31.679688 C 95.964844 33.121094 95.925781 36.015625 95.925781 38.519531 C 95.925781 39.890625 95.8125 40.234375 95.3125 40.386719 C 95.082031 40.5 94.46875 40.613281 93.738281 40.6875 C 93.507812 40.917969 93.585938 41.980469 93.738281 42.210938 C 94.734375 42.210938 95.894531 42.097656 97.578125 42.097656 C 99.6875 42.097656 101.03125 42.210938 101.570312 42.210938 C 101.800781 41.945312 101.875 40.949219 101.722656 40.6875 "/>
</g>
</svg>
