<?xml version="1.0" encoding="UTF-8"?>
<svg xmlns="http://www.w3.org/2000/svg" xmlns:xlink="http://www.w3.org/1999/xlink" width="199pt" height="122pt" viewBox="0 0 199 122" version="1.1">
<defs>
<clipPath id="clip1">
  <path d="M 52 27 L 95 27 L 95 77 L 52 77 Z M 52 27 "/>
</clipPath>
<clipPath id="clip2">
  <path d="M 72.28125 28.203125 L 53.332031 39.160156 C 52.625 39.570312 52.1875 40.328125 52.1875 41.144531 L 52.1875 63.074219 C 52.1875 63.894531 52.625 64.648438 53.332031 65.058594 L 72.28125 76.027344 C 72.988281 76.433594 73.863281 76.433594 74.570312 76.027344 L 93.515625 65.058594 C 94.222656 64.648438 94.65625 63.894531 94.65625 63.074219 L 94.65625 41.144531 C 94.65625 40.328125 94.222656 39.570312 93.511719 39.160156 L 74.570312 28.203125 C 74.214844 28 73.816406 27.894531 73.421875 27.894531 C 73.027344 27.894531 72.628906 28 72.277344 28.203125 "/>
</clipPath>
<linearGradient id="linear0" gradientUnits="userSpaceOnUse" x1="-0.348" y1="0" x2="1.251" y2="0" gradientTransform="matrix(-17.118427,34.989998,-34.921457,-17.152026,81.136889,36.324361)">
<stop offset="0.3" style="stop-color:rgb(24.313725%,52.54902%,23.921569%);stop-opacity:1;"/>
<stop offset="0.5" style="stop-color:rgb(33.333333%,57.647059%,30.980392%);stop-opacity:1;"/>
<stop offset="0.8" style="stop-color:rgb(35.294118%,67.843137%,27.058824%);stop-opacity:1;"/>
</linearGradient>
<clipPath id="clip3">
  <path d="M 52 27 L 95 27 L 95 77 L 52 77 Z M 52 27 "/>
</clipPath>
<clipPath id="clip4">
  <path d="M 52.660156 64.46875 C 52.839844 64.703125 53.066406 64.90625 53.332031 65.058594 L 69.585938 74.464844 L 72.292969 76.027344 C 72.699219 76.261719 73.160156 76.359375 73.613281 76.324219 C 73.761719 76.3125 73.914062 76.285156 74.0625 76.242188 L 94.046875 39.582031 C 93.890625 39.414062 93.714844 39.277344 93.511719 39.160156 L 81.105469 31.980469 L 74.550781 28.199219 C 74.363281 28.089844 74.160156 28.015625 73.957031 27.960938 Z M 52.660156 64.46875 "/>
</clipPath>
<linearGradient id="linear1" gradientUnits="userSpaceOnUse" x1="-0.456" y1="0" x2="0.582" y2="0" gradientTransform="matrix(48.032307,-35.559828,35.490171,48.126581,70.552801,54.693196)">
<stop offset="0.57" style="stop-color:rgb(24.313725%,52.54902%,23.921569%);stop-opacity:1;"/>
<stop offset="0.72" style="stop-color:rgb(38.039216%,59.607843%,34.117647%);stop-opacity:1;"/>
<stop offset="1" style="stop-color:rgb(46.27451%,67.45098%,39.215686%);stop-opacity:1;"/>
</linearGradient>
<clipPath id="clip5">
  <path d="M 53 27 L 95 27 L 95 77 L 53 77 Z M 53 27 "/>
</clipPath>
<clipPath id="clip6">
  <path d="M 73.195312 27.910156 C 72.878906 27.941406 72.566406 28.039062 72.28125 28.203125 L 53.386719 39.128906 L 73.761719 76.308594 C 74.042969 76.265625 74.324219 76.171875 74.574219 76.027344 L 93.519531 65.058594 C 94.105469 64.71875 94.507812 64.144531 94.628906 63.492188 L 73.859375 27.945312 C 73.707031 27.914062 73.554688 27.898438 73.394531 27.898438 C 73.332031 27.898438 73.269531 27.902344 73.207031 27.910156 "/>
</clipPath>
<linearGradient id="linear2" gradientUnits="userSpaceOnUse" x1="0.043" y1="0" x2="0.984" y2="0" gradientTransform="matrix(43.81005,0,0,43.896037,51.517984,52.105507)">
<stop offset="0.16" style="stop-color:rgb(41.960784%,74.901961%,27.843137%);stop-opacity:1;"/>
<stop offset="0.38" style="stop-color:rgb(47.45098%,70.588235%,38.039216%);stop-opacity:1;"/>
<stop offset="0.47" style="stop-color:rgb(45.882353%,67.45098%,39.215686%);stop-opacity:1;"/>
<stop offset="0.7" style="stop-color:rgb(39.607843%,61.960784%,35.294118%);stop-opacity:1;"/>
<stop offset="0.9" style="stop-color:rgb(24.313725%,52.54902%,23.921569%);stop-opacity:1;"/>
</linearGradient>
</defs>
<g id="surface1">
<path style=" stroke:none;fill-rule:nonzero;fill:rgb(40.784314%,62.352941%,38.823529%);fill-opacity:1;" d="M 98.328125 122.082031 C 97.671875 122.082031 97.019531 121.910156 96.445312 121.578125 L 90.445312 118.019531 C 89.550781 117.515625 89.988281 117.339844 90.285156 117.238281 C 91.476562 116.816406 91.722656 116.722656 92.996094 115.996094 C 93.128906 115.921875 93.304688 115.949219 93.441406 116.027344 L 98.050781 118.769531 C 98.214844 118.859375 98.453125 118.859375 98.605469 118.769531 L 116.574219 108.378906 C 116.738281 108.28125 116.847656 108.089844 116.847656 107.890625 L 116.847656 87.117188 C 116.847656 86.910156 116.738281 86.726562 116.570312 86.621094 L 98.609375 76.242188 C 98.445312 76.140625 98.222656 76.140625 98.058594 76.242188 L 80.101562 86.621094 C 79.929688 86.722656 79.816406 86.914062 79.816406 87.113281 L 79.816406 107.886719 C 79.816406 108.085938 79.925781 108.273438 80.097656 108.367188 L 85.015625 111.214844 C 87.6875 112.554688 89.320312 110.976562 89.320312 109.390625 L 89.320312 88.890625 C 89.320312 88.597656 89.550781 88.371094 89.839844 88.371094 L 92.117188 88.371094 C 92.398438 88.371094 92.632812 88.597656 92.632812 88.890625 L 92.632812 109.402344 C 92.632812 112.96875 90.691406 115.019531 87.3125 115.019531 C 86.273438 115.019531 85.457031 115.019531 83.171875 113.894531 L 78.460938 111.171875 C 77.292969 110.496094 76.574219 109.234375 76.574219 107.886719 L 76.574219 87.113281 C 76.574219 85.761719 77.292969 84.5 78.460938 83.832031 L 96.441406 73.4375 C 97.582031 72.792969 99.09375 72.792969 100.222656 73.4375 L 118.183594 83.839844 C 119.34375 84.507812 120.066406 85.765625 120.066406 87.117188 L 120.066406 107.890625 C 120.066406 109.238281 119.34375 110.496094 118.183594 111.171875 L 100.222656 121.566406 C 99.644531 121.898438 98.992188 122.070312 98.328125 122.070312 "/>
<path style=" stroke:none;fill-rule:nonzero;fill:rgb(40.784314%,62.352941%,38.823529%);fill-opacity:1;" d="M 103.878906 107.765625 C 96.019531 107.765625 94.371094 104.152344 94.371094 101.117188 C 94.371094 100.832031 94.601562 100.601562 94.890625 100.601562 L 97.210938 100.601562 C 97.46875 100.601562 97.683594 100.789062 97.722656 101.042969 C 98.074219 103.410156 99.117188 104.605469 103.871094 104.605469 C 107.65625 104.605469 109.265625 103.75 109.265625 101.738281 C 109.265625 100.578125 108.808594 99.71875 102.925781 99.140625 C 98.007812 98.65625 94.964844 97.570312 94.964844 93.625 C 94.964844 89.996094 98.023438 87.832031 103.148438 87.832031 C 108.898438 87.832031 111.75 89.832031 112.109375 94.128906 C 112.125 94.28125 112.070312 94.421875 111.96875 94.53125 C 111.871094 94.636719 111.730469 94.699219 111.589844 94.699219 L 109.253906 94.699219 C 109.011719 94.699219 108.800781 94.527344 108.75 94.292969 C 108.1875 91.800781 106.828125 91.003906 103.136719 91.003906 C 99.003906 91.003906 98.523438 92.445312 98.523438 93.527344 C 98.523438 94.839844 99.089844 95.222656 104.667969 95.960938 C 110.1875 96.695312 112.8125 97.730469 112.8125 101.621094 C 112.8125 105.539062 109.546875 107.789062 103.851562 107.789062 M 125.734375 85.757812 L 126.339844 85.757812 C 126.832031 85.757812 126.929688 85.410156 126.929688 85.207031 C 126.929688 84.675781 126.5625 84.675781 126.359375 84.675781 L 125.742188 84.675781 Z M 125.003906 84.054688 L 126.339844 84.054688 C 126.796875 84.054688 127.695312 84.054688 127.695312 85.082031 C 127.695312 85.800781 127.238281 85.949219 126.964844 86.039062 C 127.5 86.074219 127.535156 86.425781 127.605469 86.921875 C 127.644531 87.230469 127.703125 87.769531 127.808594 87.949219 L 126.984375 87.949219 C 126.964844 87.769531 126.835938 86.777344 126.835938 86.722656 C 126.785156 86.503906 126.707031 86.394531 126.433594 86.394531 L 125.753906 86.394531 L 125.753906 87.953125 L 125.003906 87.953125 Z M 123.398438 85.992188 C 123.398438 87.605469 124.695312 88.914062 126.292969 88.914062 C 127.902344 88.914062 129.203125 87.578125 129.203125 85.992188 C 129.203125 84.375 127.886719 83.089844 126.289062 83.089844 C 124.714844 83.089844 123.394531 84.355469 123.394531 85.988281 M 129.761719 86 C 129.761719 87.914062 128.199219 89.472656 126.296875 89.472656 C 124.410156 89.472656 122.835938 87.929688 122.835938 86 C 122.835938 84.039062 124.445312 82.53125 126.296875 82.53125 C 128.164062 82.53125 129.757812 84.042969 129.757812 86 "/>
<path style=" stroke:none;fill-rule:evenodd;fill:rgb(20%,20%,20%);fill-opacity:1;" d="M 42.695312 40.800781 C 42.695312 39.972656 42.257812 39.210938 41.542969 38.800781 L 22.496094 27.816406 C 22.175781 27.628906 21.8125 27.53125 21.449219 27.515625 L 21.253906 27.515625 C 20.886719 27.53125 20.527344 27.628906 20.199219 27.816406 L 1.152344 38.800781 C 0.441406 39.214844 0 39.976562 0 40.804688 L 0.0429688 70.382812 C 0.0429688 70.792969 0.253906 71.175781 0.613281 71.378906 C 0.964844 71.59375 1.40625 71.59375 1.753906 71.378906 L 13.078125 64.878906 C 13.792969 64.453125 14.230469 63.699219 14.230469 62.878906 L 14.230469 49.0625 C 14.230469 48.238281 14.667969 47.476562 15.378906 47.066406 L 20.199219 44.28125 C 20.558594 44.074219 20.953125 43.972656 21.351562 43.972656 C 21.746094 43.972656 22.148438 44.074219 22.496094 44.28125 L 27.316406 47.0625 C 28.027344 47.472656 28.464844 48.234375 28.464844 49.058594 L 28.464844 62.875 C 28.464844 63.695312 28.90625 64.453125 29.621094 64.878906 L 40.9375 71.371094 C 41.292969 71.582031 41.734375 71.582031 42.085938 71.371094 C 42.4375 71.167969 42.65625 70.785156 42.65625 70.375 Z M 132.578125 56.203125 C 132.578125 56.40625 132.46875 56.597656 132.289062 56.699219 L 125.75 60.480469 C 125.570312 60.582031 125.351562 60.582031 125.175781 60.480469 L 118.628906 56.699219 C 118.449219 56.597656 118.34375 56.40625 118.34375 56.203125 L 118.34375 48.632812 C 118.34375 48.425781 118.449219 48.238281 118.625 48.132812 L 125.164062 44.347656 C 125.34375 44.246094 125.566406 44.246094 125.746094 44.347656 L 132.289062 48.132812 C 132.46875 48.238281 132.578125 48.425781 132.578125 48.632812 Z M 134.347656 0.144531 C 133.988281 -0.0546875 133.554688 -0.046875 133.203125 0.15625 C 132.851562 0.367188 132.632812 0.742188 132.632812 1.152344 L 132.632812 30.441406 C 132.632812 30.730469 132.480469 30.996094 132.230469 31.140625 C 131.984375 31.285156 131.675781 31.285156 131.425781 31.140625 L 126.65625 28.386719 C 125.945312 27.976562 125.070312 27.976562 124.355469 28.386719 L 105.300781 39.40625 C 104.589844 39.816406 104.152344 40.578125 104.152344 41.398438 L 104.152344 63.441406 C 104.152344 64.265625 104.589844 65.023438 105.300781 65.4375 L 124.355469 76.464844 C 125.066406 76.875 125.945312 76.875 126.65625 76.464844 L 145.710938 65.433594 C 146.421875 65.019531 146.863281 64.261719 146.863281 63.4375 L 146.863281 8.5 C 146.863281 7.664062 146.410156 6.894531 145.679688 6.484375 Z M 197.796875 48.433594 C 198.503906 48.023438 198.941406 47.261719 198.941406 46.441406 L 198.941406 41.097656 C 198.941406 40.277344 198.503906 39.519531 197.796875 39.105469 L 178.863281 28.09375 C 178.148438 27.679688 177.269531 27.679688 176.554688 28.09375 L 157.507812 39.109375 C 156.789062 39.523438 156.355469 40.28125 156.355469 41.105469 L 156.355469 63.140625 C 156.355469 63.96875 156.800781 64.734375 157.515625 65.144531 L 176.445312 75.957031 C 177.140625 76.355469 177.996094 76.359375 178.699219 75.96875 L 190.152344 69.59375 C 190.511719 69.390625 190.738281 69.007812 190.738281 68.59375 C 190.738281 68.179688 190.519531 67.789062 190.160156 67.585938 L 170.992188 56.566406 C 170.632812 56.363281 170.414062 55.980469 170.414062 55.570312 L 170.414062 48.65625 C 170.414062 48.246094 170.628906 47.863281 170.988281 47.660156 L 176.953125 44.210938 C 177.308594 44.003906 177.742188 44.003906 178.097656 44.210938 L 184.066406 47.660156 C 184.421875 47.863281 184.640625 48.246094 184.640625 48.65625 L 184.640625 54.089844 C 184.640625 54.5 184.863281 54.882812 185.21875 55.089844 C 185.574219 55.292969 186.011719 55.292969 186.367188 55.085938 Z M 197.796875 48.433594 "/>
<path style=" stroke:none;fill-rule:evenodd;fill:rgb(40.784314%,62.352941%,38.823529%);fill-opacity:1;" d="M 177.429688 47.402344 C 177.566406 47.324219 177.734375 47.324219 177.871094 47.402344 L 181.527344 49.515625 C 181.664062 49.59375 181.746094 49.742188 181.746094 49.898438 L 181.746094 54.128906 C 181.746094 54.289062 181.664062 54.433594 181.527344 54.511719 L 177.871094 56.625 C 177.734375 56.707031 177.566406 56.707031 177.429688 56.625 L 173.777344 54.511719 C 173.636719 54.433594 173.550781 54.289062 173.550781 54.128906 L 173.550781 49.898438 C 173.550781 49.742188 173.632812 49.59375 173.773438 49.515625 Z M 177.429688 47.402344 "/>
<g clip-path="url(#clip1)" clip-rule="nonzero">
<g clip-path="url(#clip2)" clip-rule="nonzero">
<path style=" stroke:none;fill-rule:nonzero;fill:url(#linear0);" d="M 113.804688 37.300781 L 60.417969 11.078125 L 33.042969 67.03125 L 86.429688 93.253906 Z M 113.804688 37.300781 "/>
</g>
</g>
<g clip-path="url(#clip3)" clip-rule="nonzero">
<g clip-path="url(#clip4)" clip-rule="nonzero">
<path style=" stroke:none;fill-rule:nonzero;fill:url(#linear1);" d="M 29.574219 45.054688 L 67.273438 96.175781 L 117.128906 59.269531 L 79.429688 8.148438 Z M 29.574219 45.054688 "/>
</g>
</g>
<g clip-path="url(#clip5)" clip-rule="nonzero">
<g clip-path="url(#clip6)" clip-rule="nonzero">
<path style=" stroke:none;fill-rule:nonzero;fill:url(#linear2);" d="M 53.386719 27.898438 L 53.386719 76.308594 L 94.621094 76.308594 L 94.621094 27.898438 Z M 53.386719 27.898438 "/>
</g>
</g>
</g>
</svg>
