<?xml version="1.0" encoding="UTF-8"?>
<svg xmlns="http://www.w3.org/2000/svg" xmlns:xlink="http://www.w3.org/1999/xlink" width="199pt" height="141pt" viewBox="0 0 199 141" version="1.1">
<g id="surface1">
<path style=" stroke:none;fill-rule:nonzero;fill:rgb(38.039216%,85.490196%,98.431373%);fill-opacity:1;" d="M 157.457031 70.226562 C 157.457031 62.53125 147.84375 55.234375 133.101562 50.710938 C 136.503906 35.648438 134.992188 23.660156 128.332031 19.824219 C 126.796875 18.925781 125 18.5 123.039062 18.5 L 123.039062 23.78125 C 124.125 23.78125 125 23.992188 125.734375 24.394531 C 128.945312 26.242188 130.339844 33.277344 129.253906 42.324219 C 128.992188 44.550781 128.566406 46.898438 128.046875 49.289062 C 123.417969 48.152344 118.363281 47.277344 113.046875 46.707031 C 109.859375 42.324219 106.550781 38.347656 103.21875 34.863281 C 110.921875 27.6875 118.148438 23.757812 123.0625 23.757812 L 123.0625 18.476562 C 116.566406 18.476562 108.0625 23.117188 99.464844 31.171875 C 90.867188 23.164062 82.363281 18.570312 75.867188 18.570312 L 75.867188 23.851562 C 80.753906 23.851562 88.007812 27.757812 95.707031 34.890625 C 92.402344 38.371094 89.09375 42.324219 85.953125 46.707031 C 80.613281 47.277344 75.558594 48.152344 70.929688 49.3125 C 70.386719 46.945312 69.984375 44.648438 69.699219 42.445312 C 68.589844 33.398438 69.960938 26.363281 73.148438 24.492188 C 73.859375 24.066406 74.777344 23.875 75.867188 23.875 L 75.867188 18.59375 C 73.882812 18.59375 72.085938 19.019531 70.527344 19.917969 C 63.890625 23.757812 62.402344 35.71875 65.828125 50.734375 C 51.132812 55.28125 41.566406 62.554688 41.566406 70.226562 C 41.566406 77.925781 51.179688 85.21875 65.921875 89.746094 C 62.519531 104.808594 64.03125 116.792969 70.691406 120.628906 C 72.226562 121.53125 74.023438 121.957031 76.007812 121.957031 C 82.503906 121.957031 91.007812 117.316406 99.605469 109.261719 C 108.203125 117.265625 116.707031 121.863281 123.203125 121.863281 C 125.1875 121.863281 126.984375 121.4375 128.542969 120.535156 C 135.179688 116.699219 136.667969 104.738281 133.246094 89.722656 C 147.890625 85.195312 157.457031 77.902344 157.457031 70.226562 Z M 126.699219 54.429688 C 125.828125 57.484375 124.742188 60.636719 123.511719 63.785156 C 122.542969 61.890625 121.527344 59.996094 120.417969 58.101562 C 119.332031 56.207031 118.171875 54.359375 117.015625 52.558594 C 120.371094 53.054688 123.605469 53.671875 126.699219 54.429688 Z M 115.882812 79.65625 C 114.039062 82.851562 112.148438 85.882812 110.1875 88.703125 C 106.667969 89.011719 103.101562 89.175781 99.511719 89.175781 C 95.945312 89.175781 92.378906 89.011719 88.882812 88.726562 C 86.921875 85.90625 85.007812 82.898438 83.164062 79.726562 C 81.371094 76.621094 79.738281 73.472656 78.25 70.296875 C 79.714844 67.125 81.371094 63.949219 83.140625 60.847656 C 84.984375 57.652344 86.875 54.617188 88.835938 51.800781 C 92.355469 51.492188 95.921875 51.328125 99.511719 51.328125 C 103.078125 51.328125 106.644531 51.492188 110.140625 51.777344 C 112.101562 54.59375 114.015625 57.601562 115.859375 60.777344 C 117.652344 63.878906 119.285156 67.03125 120.773438 70.203125 C 119.285156 73.378906 117.652344 76.550781 115.882812 79.65625 Z M 123.511719 76.574219 C 124.789062 79.75 125.875 82.921875 126.773438 86.003906 C 123.675781 86.761719 120.417969 87.398438 117.039062 87.898438 C 118.195312 86.074219 119.355469 84.203125 120.441406 82.285156 C 121.527344 80.390625 122.542969 78.46875 123.511719 76.574219 Z M 99.558594 101.847656 C 97.363281 99.574219 95.164062 97.039062 92.992188 94.269531 C 95.117188 94.363281 97.292969 94.433594 99.488281 94.433594 C 101.707031 94.433594 103.90625 94.386719 106.054688 94.269531 C 103.929688 97.039062 101.730469 99.574219 99.558594 101.847656 Z M 81.984375 87.898438 C 78.628906 87.398438 75.394531 86.785156 72.300781 86.027344 C 73.171875 82.96875 74.257812 79.820312 75.488281 76.671875 C 76.457031 78.566406 77.472656 80.460938 78.582031 82.355469 C 79.691406 84.25 80.828125 86.097656 81.984375 87.898438 Z M 99.441406 38.609375 C 101.636719 40.882812 103.835938 43.414062 106.007812 46.1875 C 103.882812 46.09375 101.707031 46.019531 99.511719 46.019531 C 97.292969 46.019531 95.09375 46.070312 92.945312 46.1875 C 95.070312 43.414062 97.269531 40.882812 99.441406 38.609375 Z M 81.960938 52.558594 C 80.804688 54.382812 79.644531 56.253906 78.558594 58.171875 C 77.472656 60.066406 76.457031 61.960938 75.488281 63.855469 C 74.210938 60.683594 73.125 57.507812 72.226562 54.429688 C 75.324219 53.695312 78.582031 53.054688 81.960938 52.558594 Z M 60.582031 82.210938 C 52.21875 78.636719 46.808594 73.945312 46.808594 70.226562 C 46.808594 66.507812 52.21875 61.796875 60.582031 58.242188 C 62.613281 57.367188 64.835938 56.585938 67.125 55.851562 C 68.472656 60.492188 70.242188 65.324219 72.441406 70.273438 C 70.265625 75.203125 68.519531 80.007812 67.195312 84.628906 C 64.859375 83.894531 62.636719 83.089844 60.582031 82.210938 Z M 73.292969 116.058594 C 70.078125 114.210938 68.683594 107.175781 69.769531 98.128906 C 70.03125 95.902344 70.457031 93.558594 70.976562 91.164062 C 75.605469 92.300781 80.660156 93.179688 85.976562 93.746094 C 89.164062 98.128906 92.472656 102.109375 95.804688 105.589844 C 88.101562 112.765625 80.875 116.699219 75.960938 116.699219 C 74.898438 116.675781 74 116.460938 73.292969 116.058594 Z M 129.324219 98.011719 C 130.433594 107.058594 129.0625 114.09375 125.875 115.964844 C 125.164062 116.390625 124.246094 116.582031 123.15625 116.582031 C 118.269531 116.582031 111.015625 112.671875 103.316406 105.542969 C 106.621094 102.0625 109.929688 98.105469 113.070312 93.722656 C 118.410156 93.15625 123.464844 92.277344 128.09375 91.117188 C 128.636719 93.511719 129.0625 95.808594 129.324219 98.011719 Z M 138.417969 82.210938 C 136.386719 83.089844 134.164062 83.871094 131.875 84.605469 C 130.527344 79.960938 128.757812 75.128906 126.558594 70.179688 C 128.734375 65.253906 130.480469 60.445312 131.804688 55.828125 C 134.140625 56.5625 136.363281 57.367188 138.441406 58.242188 C 146.804688 61.820312 152.214844 66.507812 152.214844 70.226562 C 152.191406 73.945312 146.78125 78.660156 138.417969 82.210938 Z M 138.417969 82.210938 "/>
<path style=" stroke:none;fill-rule:nonzero;fill:rgb(38.039216%,85.490196%,98.431373%);fill-opacity:1;" d="M 110.285156 70.226562 C 110.285156 76.207031 105.449219 81.050781 99.488281 81.050781 C 93.527344 81.050781 88.691406 76.207031 88.691406 70.226562 C 88.691406 64.25 93.527344 59.402344 99.488281 59.402344 C 105.449219 59.402344 110.285156 64.25 110.285156 70.226562 Z M 110.285156 70.226562 "/>
</g>
</svg>
