<svg width="25" height="22" viewBox="0 0 25 22" fill="none" xmlns="http://www.w3.org/2000/svg">
<path d="M12.0481 0.0761761C12.562 -0.0446598 13.1334 0.0413701 13.5671 0.319818C14.0991 0.652117 14.4133 1.25301 14.3316 1.83552C14.2434 2.6308 14.2238 3.50555 14.7143 4.20758C15.0204 4.67779 15.32 5.15194 15.6239 5.62346C16.0146 6.24669 16.6786 6.72281 17.4366 6.93427C18.0518 7.10042 18.5802 7.5089 18.8542 8.0323C19.2369 8.73827 19.1334 9.63337 18.5897 10.2494C17.9978 10.9501 16.8987 11.2331 15.9796 10.9422C15.4971 10.8082 15.1523 10.4523 14.6953 10.273C13.3761 9.68197 11.8572 9.66358 10.4206 9.7726C9.6487 9.82448 8.91692 10.0675 8.18296 10.2704C7.64797 10.4057 7.03645 10.1686 6.76896 9.73188C6.41546 9.19403 6.6589 8.41845 7.29083 8.14657C7.86954 7.86812 8.26313 7.38215 8.59185 6.88567C9.19097 5.95707 9.78281 5.02519 10.3797 4.09594C10.7252 3.55415 10.7493 2.9086 10.7325 2.29982C10.7303 1.99248 10.6312 1.68448 10.7077 1.3791C10.8207 0.757848 11.371 0.225908 12.0481 0.0761761ZM12.0583 3.916C11.6596 4.0526 11.4344 4.40591 11.1968 4.70209C10.6086 5.49343 10.0948 6.33009 9.66182 7.19893C9.41765 7.70394 9.66911 8.34293 10.2041 8.6043C10.559 8.77964 10.9767 8.76388 11.3681 8.80197C12.387 8.85188 13.4147 8.85122 14.4279 8.73104C14.9679 8.66472 15.387 8.22931 15.4541 7.75254C15.5088 7.43863 15.3477 7.14113 15.1932 6.86925C14.9147 6.32681 14.5765 5.81128 14.2449 5.29445C13.9789 4.8886 13.7041 4.4788 13.3346 4.14125C13.0095 3.84048 12.4854 3.79122 12.0583 3.916Z" fill="#9146FF"/>
<path d="M0.129033 12.3745C0.56052 12.3423 1.00804 12.3042 1.43224 12.4001C1.45484 12.5124 1.4767 12.6254 1.4767 12.7397C1.47524 15.2588 1.47597 17.778 1.47597 20.2965C1.47743 20.4613 1.51387 20.6583 1.69172 20.7431C1.96431 20.8829 2.28428 20.7693 2.57801 20.8041C2.6407 21.0458 2.63341 21.2967 2.61737 21.5429C2.61883 21.717 2.39798 21.7623 2.2493 21.7945C1.71577 21.8857 1.113 21.9022 0.64434 21.6171C0.220141 21.3525 0.0605203 20.8678 0.0554182 20.4226C0.0532317 17.9717 0.0561471 15.5202 0.0539605 13.0687C0.0576048 12.8362 0.0240771 12.5945 0.129033 12.3745Z" fill="#280F32"/>
<path d="M12.9125 16.0173C13.6501 15.5241 14.5306 15.1787 15.4563 15.1347C16.067 15.0979 16.7412 15.1702 17.2208 15.5451C17.6633 15.886 17.8294 16.4311 17.8389 16.9387C17.8396 18.4301 17.8382 19.9215 17.8396 21.4136C17.8404 21.5259 17.8192 21.6369 17.7952 21.7478C17.4118 21.8148 17.0168 21.7872 16.629 21.7787C16.43 21.759 16.4118 21.5554 16.4169 21.4142C16.4176 20.0555 16.4176 18.6961 16.4176 17.3373C16.4111 17.0195 16.3345 16.6773 16.0831 16.4403C15.8047 16.19 15.3841 16.1447 15.0095 16.1664C14.2828 16.1927 13.5926 16.4534 12.9912 16.8106C12.992 18.3671 12.992 19.9228 12.992 21.4792C12.9912 21.5909 12.9789 21.7708 12.8141 21.7761C12.4825 21.7977 12.1487 21.7892 11.8163 21.782C11.6735 21.7918 11.5692 21.6664 11.5904 21.5443C11.5882 19.5498 11.5882 17.5554 11.5904 15.5609C11.57 15.4401 11.6757 15.3127 11.8171 15.3225C12.1305 15.314 12.4504 15.2956 12.7587 15.3593C12.8389 15.5727 12.8732 15.796 12.9125 16.0173Z" fill="#280F32"/>
<path d="M20.0671 15.4539C20.9191 15.1899 21.8331 15.094 22.7311 15.1393C23.4104 15.18 24.164 15.3508 24.578 15.8794C24.8616 16.2117 24.9009 16.6392 25 17.0339V21.5705C24.8411 21.914 24.3732 21.759 24.0547 21.7846C23.6801 21.7925 23.7391 21.3788 23.6728 21.1535C22.9935 21.6316 22.1597 21.9751 21.2828 21.9527C20.5824 21.9573 19.8426 21.6927 19.4541 21.1469C18.8506 20.2814 19.0671 18.962 20.0729 18.4143C21.129 17.8121 22.449 17.9927 23.6072 18.2029C23.5984 17.6965 23.7012 17.158 23.4709 16.6793C23.3113 16.3411 22.8863 16.2019 22.5088 16.1697C21.726 16.1132 20.9308 16.1986 20.1815 16.4107C20.0204 16.4527 19.8565 16.4954 19.6866 16.4921C19.5496 16.2951 19.6123 16.0456 19.6108 15.8249C19.6013 15.597 19.8769 15.5208 20.0671 15.4539ZM21.1895 19.0297C20.5197 19.2615 20.3637 20.0883 20.7216 20.5979C20.9184 20.8744 21.2996 20.9795 21.6473 20.9834C22.3623 20.9828 23.0438 20.7148 23.6145 20.3418C23.6152 19.911 23.6152 19.4795 23.6152 19.0487C22.8251 18.9029 21.9665 18.767 21.1895 19.0297Z" fill="#280F32"/>
<path d="M3.71941 15.5603C3.7041 15.4407 3.80104 15.312 3.94463 15.3225C4.32072 15.3186 4.70264 15.2923 5.07509 15.3534C5.11081 15.4854 5.14433 15.6194 5.13996 15.7566C5.13704 17.0714 5.13996 18.3861 5.13777 19.7015C5.13559 20.0305 5.20702 20.3792 5.44317 20.6413C5.64871 20.8481 5.96503 20.9309 6.2646 20.9427C7.02772 20.969 7.76168 20.7037 8.39798 20.3431C8.40235 18.9469 8.39871 17.5514 8.40016 16.1552C8.40454 15.8906 8.37465 15.6207 8.44754 15.3606C8.88267 15.2923 9.33894 15.2923 9.77407 15.3606C9.79885 15.4696 9.8229 15.5793 9.82217 15.6909C9.82145 17.4654 9.82145 19.2398 9.82217 21.0149C9.81999 21.2592 9.84185 21.5075 9.77334 21.7465C9.44608 21.8069 9.1057 21.7991 8.77553 21.7715C8.50731 21.6631 8.57582 21.3282 8.49346 21.1161C7.66328 21.6579 6.65672 22.0315 5.61591 21.9751C5.11299 21.9534 4.58967 21.8037 4.24054 21.4615C3.86445 21.097 3.71722 20.5848 3.71649 20.0968C3.71941 18.5851 3.71358 17.0727 3.71941 15.5603Z" fill="#280F32"/>
</svg>
