<svg width="49" height="23" viewBox="0 0 49 23" fill="none" xmlns="http://www.w3.org/2000/svg">
<path fill-rule="evenodd" clip-rule="evenodd" d="M6.61846 8.51748C7.93011 3.61212 12.3998 0 17.712 0C23.0733 0 27.5775 3.67922 28.8423 8.65398L24.2246 8.65596L23.6924 7.4322C23.6924 7.4322 24.6004 6.58334 24.834 6.32819C25.2303 5.89532 24.9775 5.64041 24.7579 5.3955C24.5384 5.15059 24.124 4.67853 23.8481 4.40602C23.5723 4.13351 23.2492 3.89264 22.8335 4.38834C22.7297 4.51254 21.7348 5.50979 21.7348 5.50979L19.1368 4.40578L19.1314 2.70299C19.1314 2.22712 18.8978 2.17319 18.5572 2.16764C18.2167 2.16209 17.323 2.16685 17.0129 2.16764C16.7028 2.16843 16.3991 2.24695 16.3991 2.74264C16.3991 3.26292 16.4132 4.42482 16.4132 4.42482L13.7712 5.49075L12.5457 4.32965C12.1671 3.98861 11.9142 4.2102 11.7193 4.41189C11.5243 4.61358 10.9436 5.23196 10.7764 5.39994C10.6091 5.56792 10.3606 5.89563 10.6921 6.2906C11.0786 6.67748 11.8515 7.45171 11.8515 7.45171L11.3328 8.53113L6.61901 8.51796L6.61846 8.51748ZM11.3378 14.4559L11.851 15.598C10.8837 16.5497 10.8344 16.6317 10.7558 16.7081C10.307 17.1443 10.5446 17.4253 10.6964 17.5739C10.8869 17.7604 11.6245 18.4885 11.7854 18.6446C11.9966 18.8494 12.3002 19.0213 12.6302 18.6777C12.8958 18.4112 13.7896 17.5205 13.7896 17.5205L16.4126 18.6245C16.4126 18.6245 16.4064 19.7153 16.4126 20.2506C16.4188 20.786 16.6953 20.8578 16.9329 20.8516C17.1705 20.8454 18.3783 20.858 18.5763 20.8516C18.7742 20.8453 19.091 20.8458 19.1302 20.251V18.6055L21.7722 17.5397L24.8262 20.5287C22.8695 22.076 20.3983 23 17.712 23C12.3771 23 7.89186 19.3567 6.60175 14.4192L11.3377 14.4559H11.3378Z" fill="white"/>
<path d="M0 9.29347H3.9093C4.99223 9.29347 5.51833 9.58755 5.51833 10.4576C5.51833 11.2172 5.24273 11.3643 4.86338 11.4746V11.4928C5.45672 11.5661 5.67696 11.8846 5.67696 12.5524C5.67696 13.5269 5.102 13.7292 4.32508 13.7292H0V9.29331V9.29347ZM1.35822 11.0518H3.76247C4.01328 11.0518 4.16003 10.9599 4.16003 10.7087C4.16003 10.4513 4.01328 10.3595 3.76247 10.3595H1.35822V11.0514V11.0518ZM1.35822 12.6631H3.79312C4.08678 12.6631 4.28255 12.5957 4.28255 12.3384C4.28255 12.0382 4.08678 11.9708 3.79312 11.9708H1.35822V12.6631ZM6.49728 9.29347H11.3425V10.3228H7.85534V11.0334H11.159V11.9524H7.85534V12.6631H11.422V13.7295H6.49728V9.29347ZM11.8565 9.29347H17.0322V10.3963H15.1234V13.7295H13.7651V10.3967H11.8565V9.29363V9.29347ZM17.5644 9.29347H18.9232V10.8741H21.7863V9.29347H23.1446V13.7295H21.7863V12.0505H18.9232V13.7295H17.5644V9.29371V9.29347ZM24.0011 9.29347H28.8476V10.3228H25.3603V11.0334H28.6641V11.9524H25.3603V12.6631H28.9272V13.7295H24.0011V9.29347ZM29.6063 12.2771H30.9643C30.9707 12.7489 31.1605 12.7857 31.552 12.7857H33.2161C33.5036 12.7857 33.7973 12.755 33.7973 12.4119C33.7973 12.026 33.6383 12.0015 31.8886 12.0015C29.8454 12.0015 29.6128 11.7564 29.6128 10.6659C29.6128 9.86324 29.6863 9.24446 31.3993 9.24446H33.296C34.8621 9.24446 35.0091 9.77742 35.0091 10.5556V10.6966H33.6506C33.6506 10.3714 33.6138 10.2366 32.9897 10.2366H31.485C31.179 10.2366 30.971 10.3408 30.971 10.5798C30.971 10.9657 31.1363 10.9779 32.5921 10.9718C34.7027 10.9658 35.1922 11.0945 35.1922 12.3872C35.1922 13.5821 34.7886 13.7783 32.9838 13.7783H31.3381C30.1022 13.7783 29.6068 13.5453 29.6068 12.5831V12.2767L29.6063 12.2771ZM36.079 9.29347H40.178C41.536 9.29347 42.0133 9.74078 42.0133 10.8374V12.1853C42.0133 13.2822 41.5361 13.7295 40.178 13.7295H36.0789V9.29363L36.079 9.29347ZM37.437 12.5896H39.8476C40.4289 12.5896 40.6551 12.4242 40.6551 11.7931V11.1927C40.6551 10.5616 40.4288 10.3963 39.8476 10.3963H37.437V12.5896ZM44.7969 9.29347H46.5649L48.9999 13.7295H47.4886L47.0667 12.9452H44.3136L43.9161 13.7299H42.3986L44.7969 9.29395V9.29347ZM44.8214 11.9892H46.559L45.678 10.3227L44.8215 11.9892H44.8214ZM20.171 16.0298C20.171 16.5923 19.9885 16.7921 19.4724 16.7921H18.3205C17.7617 16.7921 17.585 16.5409 17.585 16.0184V15.453C17.585 14.9304 17.7617 14.6792 18.3207 14.6792H19.3756C19.7462 14.6792 20.1424 14.7706 20.1424 15.2474V15.3213H19.8801C19.8801 14.9359 19.7632 14.9073 19.0733 14.9073H18.3491C18.0814 14.9073 17.8644 14.9873 17.8644 15.347V16.1235C17.8644 16.4833 18.0814 16.5632 18.3491 16.5632H19.4412C19.7208 16.5632 19.8919 16.4662 19.8919 16.1807V15.9723H18.8343V15.7439H20.1714V16.0294L20.171 16.0298ZM21.6591 14.7021H22.007L23.2325 16.7693H22.9161L22.6596 16.3324H21.0059L20.7493 16.7693H20.4329L21.6588 14.7021H21.6591ZM21.8331 14.9305L21.1402 16.1041H22.5259L21.8331 14.9309V14.9305ZM23.5608 14.7021H23.9972L25.2041 16.4353L26.4103 14.7021H26.8465V16.7693H26.5671V14.9534H26.5616L25.3041 16.7693H25.1045L23.8461 14.9534H23.8403V16.7693H23.561V14.7021H23.5608ZM27.3767 14.7021H29.4038V14.9305H27.6562V15.5901H29.3354V15.8185H27.6562V16.5409H29.4152V16.7693H27.3767V14.7021ZM31.2199 16.1183H31.4822V16.2639C31.4822 16.4666 31.5905 16.5637 31.9384 16.5637H32.8051C33.21 16.5637 33.3297 16.4781 33.3297 16.1811C33.3297 15.9213 33.2271 15.8556 32.8792 15.8556H32.349C31.4965 15.8556 31.2171 15.8043 31.2171 15.256C31.2171 14.7849 31.4965 14.6793 32.0724 14.6793H32.674C33.3664 14.6793 33.5404 14.8563 33.5404 15.2246V15.296H33.2783C33.2728 14.9677 33.2382 14.9077 32.5055 14.9077H32.2092C31.6704 14.9077 31.4794 14.9363 31.4794 15.2761C31.4794 15.522 31.5563 15.6045 31.9925 15.6045H32.8194C33.3638 15.6045 33.5919 15.7615 33.5919 16.1128V16.2469C33.5919 16.7552 33.1753 16.7925 32.7619 16.7925H31.9866C31.5787 16.7925 31.2194 16.7211 31.2194 16.2699V16.1184L31.2199 16.1183ZM34.932 14.9305H33.8885V14.7021H36.2549V14.9305H35.2114V16.7694H34.932V14.9302V14.9305ZM36.6054 14.7021H36.885V16.2469C36.885 16.4467 36.9533 16.5641 37.3324 16.5641H38.3018C38.681 16.5641 38.7494 16.447 38.7494 16.2473V14.7026H39.0288V16.2501C39.0288 16.6697 38.8179 16.7926 38.2933 16.7926H37.3412C36.8166 16.7926 36.6056 16.6697 36.6056 16.2501V14.7026L36.6054 14.7021ZM39.5592 14.7021H41.2271C41.9201 14.7021 42.1082 14.9191 42.1082 15.7357C42.1082 16.4952 41.92 16.7693 41.2186 16.7693H39.5593V14.7021H39.5592ZM41.8288 15.6358C41.8288 15.039 41.6434 14.9305 41.3013 14.9305H39.8387V16.5409H41.2557C41.595 16.5409 41.8288 16.4666 41.8288 15.8471V15.6358ZM42.6099 14.7021H42.8893V16.7693H42.6099V14.7021ZM43.448 15.4532C43.448 14.9305 43.6248 14.6793 44.1837 14.6793H45.3725C45.9314 14.6793 46.1082 14.9306 46.1082 15.4531V16.0185C46.1082 16.5411 45.9314 16.7925 45.3725 16.7925H44.1837C43.6248 16.7925 43.448 16.5411 43.448 16.0188V15.4536V15.4532ZM45.8286 15.3475C45.8286 14.9882 45.612 14.9081 45.344 14.9081H44.2122C43.9442 14.9081 43.7276 14.9882 43.7276 15.3479V16.1246C43.7276 16.4843 43.9442 16.5643 44.2122 16.5643H45.3442C45.6123 16.5643 45.8289 16.4842 45.8289 16.1246V15.348L45.8286 15.3475ZM46.55 16.1184H46.8123V16.2643C46.8123 16.467 46.9206 16.5641 47.2684 16.5641H48.1352C48.54 16.5641 48.6598 16.4785 48.6598 16.1814C48.6598 15.9216 48.5571 15.8559 48.2093 15.8559H47.679C46.8264 15.8559 46.5471 15.8046 46.5471 15.2564C46.5471 14.7853 46.8264 14.6796 47.4024 14.6796H48.004C48.6968 14.6796 48.8707 14.8566 48.8707 15.225V15.2963H48.6084C48.6029 14.968 48.5685 14.908 47.8358 14.908H47.5393C47.0004 14.908 46.8094 14.9366 46.8094 15.2764C46.8094 15.5221 46.8864 15.6048 47.3226 15.6048H48.1494C48.6939 15.6048 48.9221 15.7618 48.9221 16.1131V16.2472C48.9221 16.7556 48.5057 16.7927 48.0923 16.7927H47.3168C46.9095 16.7927 46.5502 16.7213 46.5502 16.2703V16.1188L46.55 16.1184ZM47.7873 9.71628C47.7873 9.41505 48.0297 9.17236 48.3305 9.17236C48.6298 9.17236 48.8735 9.41505 48.8735 9.7162C48.8735 10.0173 48.6298 10.2601 48.3305 10.2601C48.0297 10.2601 47.7873 10.0174 47.7873 9.7162V9.71628ZM48.7496 9.71628C48.7496 9.48358 48.5599 9.29656 48.3305 9.29656C48.0967 9.29656 47.9114 9.48358 47.9114 9.71628C47.9114 9.94897 48.0967 10.136 48.3305 10.136C48.56 10.136 48.7496 9.94881 48.7496 9.7162V9.71628ZM48.6013 10.0147H48.4616L48.3305 9.7733H48.2207V10.0146H48.0967V9.42624H48.3903C48.5258 9.42624 48.6184 9.45035 48.6184 9.60595C48.6184 9.71445 48.5628 9.75871 48.4588 9.76584L48.6013 10.0143V10.0147ZM48.3932 9.679C48.4588 9.68043 48.4944 9.66472 48.4944 9.59049C48.4944 9.5207 48.4202 9.5207 48.3633 9.5207H48.2207V9.67916H48.3932V9.679Z" fill="white"/>
</svg>
