<svg width="15" height="16" viewBox="0 0 15 16" fill="none" xmlns="http://www.w3.org/2000/svg">
<path d="M7.5 0.25C3.4873 0.25 0.234375 3.71978 0.234375 8C0.234375 12.2802 3.4873 15.75 7.5 15.75C11.5127 15.75 14.7656 12.2802 14.7656 8C14.7656 3.71978 11.5127 0.25 7.5 0.25ZM7.5 1.75C10.7382 1.75 13.3594 4.54534 13.3594 8C13.3594 11.4541 10.7387 14.25 7.5 14.25C4.26176 14.25 1.64062 11.4547 1.64062 8C1.64062 4.54588 4.26126 1.75 7.5 1.75ZM11.6075 5.82084L10.9473 5.11091C10.8106 4.96387 10.588 4.96291 10.4501 5.10878L6.30896 9.49053L4.55725 7.60687C4.42052 7.45984 4.19792 7.45887 4.06008 7.60472L3.39448 8.30897C3.25664 8.45481 3.25573 8.69225 3.39249 8.83931L6.05209 11.6992C6.18882 11.8462 6.41142 11.8472 6.54926 11.7013L11.6056 6.35119C11.7434 6.20531 11.7443 5.96788 11.6075 5.82084Z" fill="white"/>
</svg>
