<svg width="30" height="34" viewBox="0 0 30 34" fill="none" xmlns="http://www.w3.org/2000/svg">
<g clip-path="url(#clip0)">
<path fill-rule="evenodd" clip-rule="evenodd" d="M27.2756 -1.90735e-05H2.72437C0.734401 -1.90735e-05 0 0.717251 0 2.66169V26.1244C0 26.3445 0.00908539 26.5489 0.0289875 26.7382C0.0742927 27.1627 0.0828224 27.5739 0.486984 28.0422C0.526479 28.0881 0.939109 28.388 0.939109 28.388C1.16106 28.4943 1.31261 28.5726 1.56293 28.671L13.6523 33.6178C14.2799 33.8988 14.5423 34.0083 14.9982 33.9995V33.9996C14.9988 33.9996 14.9993 33.9996 15 33.9996C15.0006 33.9996 15.0011 33.9996 15.0018 33.9996V33.9995C15.4576 34.0083 15.72 33.8988 16.3477 33.6178L28.437 28.671C28.6874 28.5726 28.8389 28.4943 29.0609 28.388C29.0609 28.388 29.4735 28.0881 29.5129 28.0422C29.9171 27.5739 29.9256 27.1627 29.9709 26.7382C29.9908 26.5489 30 26.3445 30 26.1244V2.66169C30 0.717251 29.2655 -1.90735e-05 27.2756 -1.90735e-05Z" fill="#2F2D2E"/>
<path d="M25.6312 23.5887L25.6256 23.6429L25.6201 23.7023L25.609 23.7565L25.5924 23.8105L25.5817 23.8593L25.565 23.9134L25.5429 23.9621L25.5207 24.0055L25.4988 24.0541L25.4712 24.0974L25.4435 24.1407L25.4105 24.184L25.3828 24.2273L25.3499 24.2652L25.3111 24.3031L25.2781 24.3356L25.2339 24.3735L25.1954 24.4059L25.1511 24.4384L25.107 24.4651L25.063 24.4976L25.0132 24.5246L24.9636 24.5463L24.9141 24.5733L24.8586 24.595L24.8036 24.6167L24.7485 24.6329L24.6934 24.6492L24.6435 24.6653L24.5885 24.6762L24.5389 24.687L24.4894 24.6978L24.434 24.7087L24.3788 24.714L24.3293 24.7195L24.2739 24.7249L24.2133 24.7303L24.1582 24.7357H24.1031H24.0425H23.9815H23.9265L23.8713 24.7303H23.8107L23.7556 24.7249L23.7002 24.7195L23.6396 24.714L23.5845 24.7032L23.5295 24.6978L23.474 24.687L23.4189 24.6762L23.3638 24.6653L23.3087 24.6545L23.2534 24.6383L23.2038 24.6275L23.1487 24.6112L23.0936 24.595L23.0438 24.5733L22.9887 24.5571L22.9391 24.5409L22.884 24.5192L22.8342 24.4976L22.7846 24.4759L22.735 24.4492L22.6852 24.4275L22.6357 24.4004L22.5917 24.3735L22.5418 24.3464L22.4978 24.3193L22.4534 24.2923L22.4094 24.2598L22.3654 24.2273L22.3211 24.1948L22.2771 24.1624L22.2383 24.1299L22.1943 24.092L22.2275 24.0488L22.266 24.0108L22.2992 23.9675L22.3377 23.9242L22.371 23.8864L22.4039 23.8431L22.4427 23.7997L22.4756 23.7619L22.5144 23.7186L22.5473 23.6807L22.5861 23.6374L22.619 23.5941L22.6523 23.5562L22.6907 23.5129L22.724 23.4696L22.7624 23.4318L22.7957 23.3885L22.8397 23.4209L22.8893 23.4534L22.9336 23.4859L22.9831 23.5184L23.0275 23.5454L23.077 23.5778L23.121 23.6049L23.1709 23.6266L23.2149 23.6537L23.2644 23.6753L23.3143 23.6969L23.3638 23.7186L23.4134 23.7348L23.4633 23.7565L23.5183 23.7727L23.5735 23.7889L23.623 23.8052L23.6784 23.816L23.7335 23.8268L23.7886 23.8377L23.8492 23.8431L23.9046 23.8539H23.9597L24.0203 23.8593H24.0754H24.1415L24.2022 23.8539L24.2576 23.8431L24.3071 23.8322L24.3567 23.8214L24.401 23.8052L24.4395 23.7836L24.4838 23.7511L24.5167 23.7132L24.5389 23.6698L24.5556 23.6212L24.561 23.567V23.5562L24.5556 23.4913L24.5334 23.4371L24.5057 23.3993L24.4672 23.3668L24.4228 23.3343L24.3788 23.3127L24.3293 23.291L24.2739 23.2694L24.2077 23.2424L24.1692 23.2315L24.1253 23.2207L24.0754 23.2044L24.0258 23.1936L23.9708 23.1774L23.9153 23.1666L23.8548 23.1503L23.7996 23.1395L23.739 23.1233L23.6839 23.1125L23.6285 23.0962L23.5735 23.0854L23.5183 23.0691L23.4685 23.053L23.4134 23.0421L23.3638 23.0259L23.3143 23.0096L23.2644 22.9934L23.2038 22.9717L23.1487 22.95L23.0936 22.9284L23.0382 22.9068L22.9887 22.8797L22.9336 22.8527L22.8893 22.8256L22.8397 22.7986L22.7957 22.7661L22.7514 22.7391L22.7129 22.7065L22.6742 22.6687L22.6357 22.6308L22.6024 22.5928L22.5695 22.555L22.5418 22.5171L22.5144 22.4738L22.4867 22.4252L22.4645 22.3876L22.4479 22.3443L22.4316 22.2955L22.415 22.2523L22.4039 22.1981L22.3928 22.1494L22.3873 22.0953L22.3818 22.0412L22.3762 21.9817V21.9221V21.9113V21.8572L22.3818 21.8031L22.3873 21.7544L22.3928 21.7002L22.4039 21.6516L22.415 21.6028L22.4316 21.5541L22.4427 21.5054L22.4645 21.4567L22.4867 21.408L22.5088 21.3593L22.5363 21.3106L22.5639 21.2619L22.5968 21.2186L22.6302 21.1753L22.6686 21.132L22.7074 21.0941L22.7459 21.0508L22.7902 21.0129L22.8286 20.9858L22.8729 20.9534L22.917 20.9209L22.961 20.8939L23.0108 20.8668L23.0604 20.8451L23.1099 20.8181L23.1598 20.7965L23.2149 20.7802L23.2699 20.7586L23.3198 20.7423L23.3638 20.7315L23.4134 20.7207L23.4633 20.7099L23.5183 20.6991L23.5679 20.6882L23.623 20.6828L23.6784 20.6774L23.7335 20.6719L23.7886 20.6666H23.8436H23.9046H23.9653H24.0258L24.0865 20.6719L24.1471 20.6774H24.2022L24.2631 20.6828L24.3182 20.6936L24.3788 20.6991L24.434 20.7099L24.4838 20.7207L24.5389 20.7315L24.594 20.7423L24.6435 20.7531L24.6989 20.7694L24.7485 20.7856L24.7981 20.7965L24.8534 20.8181L24.903 20.8343L24.9525 20.8559L25.0021 20.8776L25.0575 20.8993L25.107 20.9263L25.1511 20.948L25.2009 20.975L25.2505 21.0021L25.2945 21.0292L25.3443 21.0617L25.3884 21.0887L25.4327 21.1212L25.4767 21.1537L25.5207 21.1861L25.4878 21.2294L25.4601 21.2727L25.4271 21.316L25.3939 21.3593L25.361 21.408L25.3333 21.4513L25.3 21.4946L25.2671 21.5379L25.2394 21.5812L25.2064 21.6245L25.1732 21.6678L25.1455 21.7111L25.1126 21.7598L25.0793 21.8031L25.0464 21.8464L25.0187 21.8896L24.9858 21.9329L24.9415 21.9005L24.892 21.8734L24.8479 21.8464L24.8036 21.8139L24.7541 21.7923L24.7097 21.7652L24.6602 21.7435L24.6162 21.7219L24.5663 21.7002L24.5223 21.6786L24.4728 21.6624L24.4285 21.6407L24.3678 21.6245L24.3127 21.6082L24.2576 21.592L24.2022 21.5812L24.1471 21.5704L24.092 21.5595L24.037 21.5541L23.9815 21.5487L23.932 21.5433H23.8769H23.8107L23.7501 21.5541L23.6947 21.5649L23.6452 21.5757L23.6012 21.5974L23.5623 21.619L23.5128 21.6624L23.4795 21.7111L23.4578 21.7598L23.4521 21.8139V21.8248L23.4578 21.8951L23.4851 21.9546L23.5073 21.9871L23.5457 22.025L23.5956 22.052L23.6396 22.0791L23.6947 22.1007L23.7556 22.1224L23.8218 22.144L23.8658 22.1548L23.9098 22.1711L23.9597 22.1819L24.0092 22.1981L24.0643 22.209L24.1253 22.2252L24.1859 22.2414L24.2466 22.2577L24.3071 22.2685L24.3622 22.2847L24.4228 22.301L24.4783 22.3118L24.5334 22.328L24.5885 22.3443L24.638 22.3605L24.6934 22.3767L24.743 22.393L24.7925 22.4092L24.8534 22.4305L24.9085 22.4576L24.9636 22.4792L25.0187 22.5063L25.0686 22.5334L25.1182 22.5604L25.1621 22.5875L25.2064 22.62L25.2505 22.647L25.2945 22.6849L25.3388 22.7228L25.3773 22.7661L25.416 22.8039L25.449 22.8473L25.4822 22.8959L25.5096 22.9392L25.5374 22.988L25.5595 23.0313L25.5761 23.0799L25.5924 23.1287L25.6035 23.1774L25.6145 23.2315L25.6256 23.2857L25.6312 23.3398L25.6367 23.3993V23.4588V23.4696V23.5292L25.6312 23.5887ZM21.7624 24.6708H21.707H21.6519H21.5969H21.5418H21.4863H21.4312H21.3762H21.3211H21.2601H21.2051H21.15H21.0949H21.0394H20.9844H20.9293H20.8742H20.8188H20.7637H20.7086H20.6535H20.5984H20.543H20.488H20.4329H20.3778H20.3223H20.2672H20.2122H20.1515H20.0962H20.041H19.986H19.9309H19.8755H19.8204H19.7653H19.7102H19.6548H19.5997H19.5446H19.4895H19.4341H19.3791H19.3239H19.2689H19.2135H19.1583H19.0977H19.0426H18.9876H18.9321H18.8771H18.8219H18.7669H18.7115H18.6564H18.6013V24.6167V24.5625V24.5084V24.4546V24.4004V24.3464V24.2923V24.2382V24.184V24.1299V24.0758V24.0216V23.9675V23.9134V23.8593V23.8052V23.7511V23.6969V23.6482V23.5941V23.54V23.4859V23.4318V23.3776V23.3235V23.2694V23.2152V23.1611V23.107V23.053V22.9988V22.9447V22.8906V22.8364V22.7823V22.7282V22.674V22.62V22.5659V22.5117V22.4576V22.4038V22.3497V22.2955V22.2414V22.1873V22.1332V22.0791V22.025V21.9708V21.9167V21.8626V21.8085V21.7544V21.7057V21.6516V21.5974V21.5433V21.4892V21.435V21.3809V21.3268V21.2727V21.2186V21.1645V21.1103V21.0562V21.0021V20.948V20.8939V20.8398V20.7856V20.7315H18.6564H18.7115H18.7669H18.8219H18.8771H18.9321H18.9876H19.0426H19.0977H19.1528H19.2082H19.2634H19.3184H19.3735H19.4233H19.4785H19.5335H19.5887H19.644H19.6991H19.7542H19.8093H19.8647H19.9198H19.9748H20.03H20.0854H20.1405H20.1955H20.2506H20.3061H20.3612H20.4162H20.4713H20.5264H20.5818H20.6369H20.692H20.7471H20.8025H20.8576H20.9126H20.9677H21.0177H21.0727H21.1278H21.1829H21.2383H21.2934H21.3484H21.4035H21.459H21.514H21.5691H21.6242H21.6796H21.7347H21.7898V20.7856V20.8343V20.8884V20.9426V20.9967V21.0454V21.0995V21.1537V21.2023V21.2565V21.3106V21.3593V21.4134V21.4675V21.5217V21.5704V21.6245H21.7347H21.6796H21.6242H21.5691H21.514H21.459H21.4091H21.354H21.2989H21.2438H21.1884H21.1334H21.0782H21.0232H20.9677H20.9126H20.8576H20.8025H20.7471H20.6975H20.6424H20.5873H20.5319H20.4769H20.4218H20.3667H20.3113H20.2562H20.2011H20.146H20.0906H20.0355H19.986H19.9309H19.8755H19.8204H19.7653H19.7102H19.6548V21.6786V21.7327V21.7868V21.8409V21.8951V21.9438V21.9979V22.052V22.1061V22.1603V22.2144V22.2685H19.7102H19.7653H19.8204H19.8755H19.9309H19.986H20.041H20.0962H20.146H20.2011H20.2562H20.3113H20.3667H20.4218H20.4769H20.5319H20.5873H20.6424H20.6975H20.7526H20.808H20.8631H20.9182H20.9733H21.0287H21.0838H21.1334H21.1884H21.2438H21.2989H21.354H21.4091H21.4645H21.5196H21.5747V22.3226V22.3713V22.4252V22.4792V22.528V22.582V22.6362V22.6849V22.7391V22.7931V22.8473V22.8959V22.95V23.0042V23.053V23.107H21.5196H21.4645H21.4091H21.354H21.2989H21.2438H21.1884H21.1334H21.0838H21.0287H20.9733H20.9182H20.8631H20.808H20.7526H20.6975H20.6424H20.5873H20.5319H20.4769H20.4218H20.3667H20.3113H20.2562H20.2011H20.146H20.0962H20.041H19.986H19.9309H19.8755H19.8204H19.7653H19.7102H19.6548V23.1611V23.2207V23.2748V23.3289V23.3885V23.4426V23.4967V23.5562V23.6103V23.6645V23.724V23.7781H19.7102H19.7653H19.8204H19.8755H19.9309H19.986H20.041H20.0962H20.1515H20.2122H20.2672H20.3223H20.3778H20.4329H20.488H20.543H20.5984H20.6535H20.7086H20.7637H20.8188H20.8742H20.9293H20.9844H21.0394H21.0949H21.15H21.2051H21.2601H21.3211H21.3762H21.4312H21.4863H21.5418H21.5969H21.6519H21.707H21.7624H21.8175V23.8322V23.8809V23.9351V23.9892V24.0433V24.092V24.1461V24.2002V24.249V24.3031V24.3572V24.4059V24.4597V24.5138V24.5679V24.6167V24.6708H21.7624ZM17.7316 24.6708H17.6766H17.6214H17.5606H17.5055H17.4504H17.3953H17.3398H17.2848H17.2241H17.1691H17.1139H17.0586H17.0035H16.9484H16.8878H16.8323H16.7773H16.7221V24.6167V24.5625V24.5084V24.4543V24.3998V24.3458V24.2916V24.2375V24.1834V24.1293V24.0751V24.0207V23.9666V23.9124V23.8584V23.8042V23.7498V23.6956V23.6415V23.5874V23.5333V23.4792V23.4248V23.3707V23.3165V23.2624V23.2083V23.1541V23.0997V23.0455V22.9914V22.9374V22.8833V22.8291V22.7747V22.7206V22.6664V22.6123V22.5582V22.5037V22.4497V22.3955V22.3414L16.6945 22.3846L16.6616 22.4337L16.6338 22.477L16.6009 22.5203L16.5732 22.569L16.5399 22.6123L16.5126 22.6556L16.4848 22.7046L16.452 22.7479L16.4242 22.7912L16.391 22.8346L16.3636 22.8836L16.3304 22.9269L16.303 22.9701L16.2753 23.0189L16.242 23.0624L16.2146 23.1058L16.1814 23.1544L16.1541 23.1978L16.1208 23.2411L16.0934 23.2901L16.0657 23.3334L16.0325 23.3767L16.0051 23.4254L15.9718 23.469L15.9445 23.5123L15.9112 23.5556L15.8835 23.6043L15.8561 23.6479L15.8229 23.6912L15.7955 23.7399L15.7623 23.7832L15.7346 23.8265L15.7016 23.8756L15.6739 23.9188H15.6521L15.6189 23.8701L15.5911 23.8265L15.5582 23.7778L15.5305 23.7345L15.4975 23.6858L15.4698 23.6422L15.437 23.5935L15.4092 23.5501L15.376 23.5015L15.3486 23.4582L15.3153 23.4091L15.288 23.3658L15.2548 23.3171L15.227 23.2738L15.1941 23.2248L15.1664 23.1815L15.1335 23.1328L15.1002 23.0895L15.0725 23.0405L15.0396 22.9972L15.0119 22.9485L14.979 22.9052L14.9513 22.8562L14.9183 22.8129L14.8906 22.7642L14.8574 22.7209L14.83 22.6722L14.7968 22.6285L14.7694 22.5799L14.7361 22.5365L14.7084 22.4878L14.6755 22.4446L14.6477 22.3955L14.6149 22.3522V22.4063V22.4605V22.5146V22.569V22.6232V22.6772V22.7314V22.7855V22.8399V22.8941V22.9428V22.9969V23.051V23.1051V23.1596V23.2137V23.2678V23.3219V23.376V23.4302V23.4846V23.5387V23.5929V23.647V23.7011V23.7552V23.8096V23.8637V23.9179V23.972V24.0261V24.0805V24.1293V24.1834V24.2375V24.2916V24.3458V24.3998V24.4543V24.5084V24.5625V24.6167V24.6708H14.5598H14.5044H14.4493H14.3942H14.3391H14.2837H14.2286H14.1735H14.1184H14.063H14.008H13.9528H13.8978H13.8424H13.7873H13.7322H13.677H13.6217H13.5666V24.6167V24.5625V24.5084V24.4546V24.4004V24.3464V24.2923V24.2382V24.184V24.1299V24.0758V24.0216V23.9675V23.9134V23.8593V23.8052V23.7511V23.6969V23.6482V23.5941V23.54V23.4859V23.4318V23.3776V23.3235V23.2694V23.2152V23.1611V23.107V23.053V22.9988V22.9447V22.8906V22.8364V22.7823V22.7282V22.674V22.62V22.5659V22.5117V22.4576V22.4038V22.3497V22.2955V22.2414V22.1873V22.1332V22.0791V22.025V21.9708V21.9167V21.8626V21.8085V21.7544V21.7057V21.6516V21.5974V21.5433V21.4892V21.435V21.3809V21.3268V21.2727V21.2186V21.1645V21.1103V21.0562V21.0021V20.948V20.8939V20.8398V20.7856V20.7315H13.6217H13.677H13.7267H13.7817H13.8368H13.8922H13.9418H13.9968H14.0523H14.1073H14.1569H14.212H14.2674H14.3225H14.372H14.4271H14.4825H14.5377H14.5872H14.6422H14.6977L14.7251 20.7748L14.7527 20.8235L14.7856 20.8664L14.8134 20.9152L14.8411 20.9584L14.8685 21.0072L14.8961 21.0501L14.9291 21.0989L14.9568 21.1422L14.9845 21.1855L15.0119 21.2338L15.0396 21.2772L15.0725 21.3258L15.1002 21.3692L15.1279 21.4175L15.1553 21.4608L15.1886 21.5041L15.2163 21.5526L15.2436 21.5958L15.2713 21.6445L15.2988 21.6878L15.332 21.7362L15.3597 21.7795L15.387 21.8282L15.4148 21.8712L15.4422 21.9145L15.4754 21.9632L15.5031 22.0065L15.5305 22.0552L15.5582 22.0982L15.5855 22.1469L15.6189 22.1902L15.6466 22.2386L15.6739 22.2819L15.7016 22.2386L15.7293 22.1902L15.7623 22.1469L15.7899 22.0982L15.8173 22.0552L15.845 22.0065L15.878 21.9632L15.9056 21.9145L15.9334 21.8712L15.9607 21.8282L15.994 21.7795L16.0214 21.7362L16.0491 21.6878L16.0767 21.6445L16.1097 21.5958L16.1374 21.5526L16.1651 21.5041L16.1924 21.4608L16.2203 21.4175L16.2531 21.3692L16.2808 21.3258L16.3085 21.2772L16.336 21.2338L16.3691 21.1855L16.3966 21.1422L16.4242 21.0989L16.452 21.0501L16.4848 21.0072L16.5126 20.9584L16.5399 20.9152L16.5677 20.8664L16.6009 20.8235L16.6283 20.7748L16.656 20.7315H16.7111H16.7662H16.816H16.8711H16.9262H16.9813H17.0312H17.0863H17.1413H17.1964H17.2463H17.3014H17.3565H17.4116H17.4614H17.5165H17.5716H17.6267H17.6766H17.7316H17.7867V20.7856V20.8398V20.8939V20.948V21.0021V21.0562V21.1103V21.1645V21.2186V21.2727V21.3268V21.3809V21.435V21.4892V21.5433V21.5974V21.6516V21.7057V21.7544V21.8085V21.8626V21.9167V21.9708V22.025V22.0791V22.1332V22.1873V22.2414V22.2955V22.3497V22.4038V22.4576V22.5117V22.5659V22.62V22.674V22.7282V22.7823V22.8364V22.8906V22.9447V22.9988V23.053V23.107V23.1611V23.2152V23.2694V23.3235V23.3776V23.4318V23.4859V23.54V23.5941V23.6482V23.6969V23.7511V23.8052V23.8593V23.9134V23.9675V24.0216V24.0758V24.1299V24.184V24.2382V24.2923V24.3464V24.4004V24.4546V24.5084V24.5625V24.6167V24.6708H17.7316ZM11.3309 23.0475L11.3143 22.9985L11.2924 22.9444L11.2702 22.8956L11.2536 22.8466L11.2318 22.7979L11.2097 22.7438L11.193 22.6947L11.1708 22.646L11.149 22.5974L11.1324 22.5484L11.1102 22.4942L11.0939 22.4455L11.0717 22.3965L11.0495 22.3478L11.033 22.299L11.0111 22.2447L10.989 22.1959L10.9723 22.1472L10.9501 22.0982L10.9283 22.0441L10.9117 21.995L10.8895 21.9463L10.8677 21.995L10.8511 22.0441L10.8289 22.0982L10.8067 22.1472L10.7904 22.1959L10.7683 22.2447L10.7461 22.299L10.7243 22.3478L10.7076 22.3965L10.6855 22.4455L10.6633 22.4942L10.647 22.5484L10.6248 22.5974L10.6027 22.646L10.5861 22.6947L10.5642 22.7438L10.542 22.7979L10.5199 22.8466L10.5036 22.8956L10.4815 22.9444L10.4593 22.9985L10.4426 23.0475L10.4208 23.0962H10.4759H10.531H10.5861H10.6415H10.6965H10.7516H10.8067H10.8622H10.9117H10.9668H11.0222H11.0773H11.1324H11.1875H11.2426H11.2979H11.353L11.3309 23.0475ZM13.0634 24.6708H13.008H12.9583H12.9033H12.8479H12.7928H12.7377H12.6882H12.6327H12.5777H12.5226H12.4675H12.4121H12.3625H12.3074H12.2523H12.1969H12.1419H12.0923H12.0372H11.9818L11.96 24.622L11.9433 24.5733L11.9212 24.5246L11.899 24.4705L11.8827 24.4221L11.8606 24.3735L11.8384 24.3247L11.8221 24.276L11.7999 24.2273L11.7778 24.1786L11.7612 24.1299L11.7393 24.0758L11.7171 24.0271L11.7005 23.9784L11.6783 23.9297H11.6232H11.5682H11.5131H11.458H11.4081H11.353H11.2979H11.2426H11.1875H11.1324H11.0773H11.0222H10.9668H10.9117H10.8622H10.8067H10.7516H10.6965H10.6415H10.5861H10.531H10.4759H10.4208H10.3657H10.3158H10.2608H10.2057H10.1502H10.0952L10.0733 23.9784L10.0567 24.0271L10.0345 24.0758L10.0124 24.1299L9.99608 24.1786L9.97395 24.2273L9.95176 24.276L9.93513 24.3247L9.91332 24.3735L9.89113 24.4221L9.8745 24.4705L9.85262 24.5246L9.83049 24.5733L9.81387 24.622L9.79168 24.6708H9.73661H9.68154H9.62647H9.57102H9.51595H9.45532H9.40025H9.34512H9.28974H9.23466H9.17959H9.12446H9.06902H9.01401H8.95894H8.89831H8.84287H8.7878H8.73266H8.67759L8.69941 24.622L8.7216 24.5733L8.74373 24.5246L8.76561 24.4705L8.78223 24.4221L8.80442 24.3735L8.82655 24.3247L8.84837 24.276L8.87056 24.2273L8.89275 24.1732L8.91456 24.1245L8.93675 24.0758L8.95332 24.0271L8.97551 23.9784L8.99732 23.9297L9.01951 23.8756L9.04164 23.8268L9.06352 23.7781L9.08571 23.7294L9.10784 23.6807L9.12446 23.632L9.14628 23.5778L9.16847 23.5292L9.19066 23.4805L9.21248 23.4318L9.23466 23.383L9.25685 23.3343L9.27867 23.2802L9.2953 23.2315L9.31749 23.1828L9.33961 23.1341L9.3615 23.0854L9.38362 23.0367L9.40575 22.9826L9.42763 22.9339L9.44976 22.8851L9.46638 22.8364L9.48857 22.7878L9.51039 22.7391L9.53258 22.6849L9.55477 22.6362L9.57659 22.5875L9.59871 22.5388L9.6209 22.4901L9.63753 22.4413L9.65941 22.393L9.68154 22.3388L9.70366 22.2902L9.72554 22.2414L9.74767 22.1927L9.76986 22.144L9.79168 22.0953L9.8083 22.0412L9.83049 21.9925L9.85262 21.9438L9.8745 21.8951L9.89669 21.8464L9.91882 21.7976L9.9407 21.7435L9.96282 21.6948L9.97945 21.6461L10.0016 21.5974L10.0235 21.5487L10.0456 21.5L10.0678 21.4459L10.0896 21.3972L10.1118 21.3485L10.134 21.2998L10.1502 21.2511L10.1724 21.2023L10.1946 21.1482L10.2168 21.0995L10.2386 21.0508L10.2608 21.0021L10.2829 20.9534L10.3047 20.9047L10.3214 20.8506L10.3436 20.8019L10.3657 20.7531L10.3876 20.7044H10.4426H10.4925H10.5476H10.6027H10.6581H10.7076H10.7627H10.8178H10.8733H10.9228H10.9778H11.033H11.0883H11.1379H11.193H11.2481H11.3035H11.353H11.4081L11.4303 20.7531L11.4525 20.8019L11.4743 20.8506L11.4965 20.9047L11.5131 20.9534L11.5349 21.0021L11.5571 21.0508L11.5792 21.0995L11.6014 21.1482L11.6232 21.2023L11.6454 21.2511L11.6676 21.2998L11.6839 21.3485L11.7061 21.3972L11.7282 21.4459L11.7504 21.5L11.7722 21.5487L11.7944 21.5974L11.8166 21.6461L11.8384 21.6948L11.855 21.7435L11.8771 21.7976L11.899 21.8464L11.9212 21.8951L11.9433 21.9438L11.9655 21.9925L11.9873 22.0412L12.0095 22.0953L12.0262 22.144L12.048 22.1927L12.0701 22.2414L12.0923 22.2902L12.1145 22.3388L12.1363 22.393L12.1585 22.4413L12.1806 22.4901L12.1969 22.5388L12.2191 22.5875L12.2412 22.6362L12.2631 22.6849L12.2853 22.7391L12.3074 22.7878L12.3296 22.8364L12.3515 22.8851L12.3681 22.9339L12.3902 22.9826L12.4121 23.0367L12.4342 23.0854L12.4564 23.1341L12.4785 23.1828L12.5004 23.2315L12.5226 23.2802L12.5392 23.3343L12.561 23.383L12.5832 23.4318L12.6054 23.4805L12.6272 23.5292L12.6494 23.5778L12.6716 23.632L12.6937 23.6807L12.71 23.7294L12.7322 23.7781L12.7544 23.8268L12.7762 23.8756L12.7983 23.9297L12.8205 23.9784L12.8426 24.0271L12.8645 24.0758L12.8811 24.1245L12.9033 24.1732L12.9252 24.2273L12.9473 24.276L12.9694 24.3247L12.9913 24.3735L13.0134 24.4221L13.0356 24.4705L13.0523 24.5246L13.074 24.5733L13.0962 24.622L13.1184 24.6708H13.0634ZM8.23041 24.1677L8.1861 24.2002L8.14759 24.2273L8.10327 24.2598L8.05927 24.2868L8.01526 24.3193L7.97094 24.3464L7.92694 24.3735L7.87706 24.4004L7.82749 24.4275L7.77792 24.4546L7.7281 24.4759L7.67853 24.503L7.62346 24.5246L7.57395 24.5463L7.51851 24.5679L7.469 24.5896L7.41937 24.6058L7.36955 24.622L7.31998 24.6383L7.26491 24.6545L7.2154 24.6708L7.15996 24.6816L7.11039 24.6924L7.05532 24.7032L6.99994 24.714L6.94481 24.7195L6.88417 24.7249L6.8291 24.7303L6.76847 24.7357L6.71303 24.7411L6.65246 24.7465H6.59183H6.53113H6.47056H6.41512L6.36005 24.7411L6.29941 24.7357L6.24434 24.7303L6.18927 24.7249L6.13383 24.7195L6.07876 24.7087L6.02362 24.6978L5.97412 24.687L5.91874 24.6762L5.86917 24.66L5.8141 24.6492L5.76422 24.6329L5.71465 24.6112L5.66508 24.595L5.61007 24.5733L5.56019 24.5517L5.51062 24.5301L5.46111 24.5084L5.41117 24.4814L5.36722 24.4546L5.31765 24.4275L5.27334 24.4004L5.22933 24.3735L5.18502 24.3409L5.14101 24.3085L5.09694 24.276L5.05819 24.2436L5.01974 24.2111L4.98093 24.1732L4.94248 24.1407L4.90367 24.1028L4.86522 24.0649L4.83197 24.0271L4.79903 23.9838L4.76577 23.9459L4.73808 23.9026L4.70514 23.8593L4.67751 23.816L4.65007 23.7727L4.62238 23.724L4.59469 23.6807L4.57287 23.632L4.55068 23.5833L4.52855 23.5346L4.50667 23.4859L4.49005 23.4426L4.46786 23.3938L4.45679 23.3451L4.44048 23.2965L4.42941 23.2424L4.41279 23.1936L4.40172 23.1395L4.39616 23.0908L4.38504 23.0367L4.3796 22.988L4.37397 22.9339L4.36878 22.8797L4.36328 22.8256V22.7661V22.712V22.7011V22.647L4.36878 22.5875V22.5334L4.37397 22.4792L4.3796 22.4197L4.39066 22.3659L4.39616 22.3118L4.40723 22.2631L4.42385 22.209L4.43498 22.1548L4.45123 22.1061L4.46786 22.052L4.48449 22.0033L4.50667 21.9492L4.52855 21.9005L4.55068 21.8518L4.57287 21.8031L4.59469 21.7544L4.62238 21.7057L4.65007 21.6624L4.67751 21.619L4.70514 21.5757L4.73289 21.5325L4.76577 21.4892L4.79903 21.4459L4.83197 21.4026L4.86522 21.3646L4.90367 21.3268L4.93692 21.2889L4.97543 21.2511L5.01418 21.2131L5.05262 21.1807L5.09694 21.1428L5.13545 21.1103L5.17945 21.0778L5.22377 21.0508L5.26778 21.0183L5.31215 20.9913L5.3561 20.9642L5.40567 20.9371L5.45555 20.9101L5.50506 20.883L5.55463 20.8614L5.60444 20.8398L5.65958 20.8127L5.70358 20.7965L5.75865 20.7802L5.80859 20.7586L5.8581 20.7477L5.90761 20.7315L5.96299 20.7207L6.01256 20.7044L6.06763 20.6936L6.12276 20.6882L6.17814 20.6774L6.23328 20.6719L6.28829 20.6666L6.34342 20.6611L6.39886 20.6557H6.45949H6.51457H6.57514H6.63577L6.69677 20.6611L6.75741 20.6666H6.81248L6.86755 20.6719L6.92818 20.6828L6.97806 20.6882L7.03313 20.6991L7.08826 20.7099L7.13808 20.7207L7.18759 20.7315L7.23722 20.7423L7.2871 20.7586L7.33661 20.7694L7.38062 20.7856L7.4305 20.8019L7.48006 20.8235L7.52957 20.8451L7.57945 20.8668L7.62902 20.8939L7.67853 20.9155L7.72291 20.9426L7.77242 20.9696L7.81642 20.9967L7.8663 21.0238L7.91031 21.0562L7.95432 21.0833L7.99863 21.1158L8.04264 21.1482L8.08696 21.1861L8.13096 21.2186L8.09771 21.2619L8.05927 21.2998L8.02601 21.343L7.98757 21.3863L7.95432 21.4297L7.92137 21.4675L7.88256 21.5108L7.84968 21.5541L7.81642 21.592L7.77792 21.6353L7.74473 21.6786L7.70622 21.7219L7.67297 21.7598L7.64009 21.8031L7.60133 21.8464L7.56833 21.8896L7.52957 21.9276L7.49663 21.9708L7.45231 21.9384L7.40831 21.9005L7.36399 21.8734L7.31998 21.8409L7.27598 21.8139L7.23166 21.7868L7.18759 21.7598L7.13808 21.7327L7.09376 21.7111L7.04976 21.6894L7.00544 21.6732L6.95587 21.6569L6.90636 21.6407L6.85649 21.6299L6.80141 21.619L6.74634 21.6082L6.69121 21.6028L6.63058 21.5974L6.56964 21.592H6.509H6.45393L6.39886 21.5974L6.34898 21.6028L6.29391 21.6137L6.24434 21.6245L6.19446 21.6407L6.14495 21.6569L6.09538 21.6786L6.04581 21.7002L6.0015 21.7273L5.95755 21.7544L5.91317 21.7815L5.87473 21.8139L5.83591 21.8464L5.79747 21.8788L5.76422 21.9167L5.72577 21.9546L5.69252 21.9979L5.66508 22.0358L5.63739 22.0791L5.61007 22.1278L5.58232 22.1711L5.56019 22.2198L5.54356 22.2685L5.52168 22.3172L5.50506 22.3713L5.49399 22.4252L5.48293 22.4738L5.4718 22.5334L5.4663 22.5875L5.46111 22.6416V22.7011V22.712V22.7661L5.4663 22.8202L5.4718 22.8689L5.47737 22.923L5.48843 22.9717L5.49955 23.0205L5.51062 23.0691L5.52724 23.1179L5.54356 23.1611L5.56575 23.2152L5.58788 23.264L5.61526 23.3127L5.64295 23.356L5.67064 23.3993L5.70358 23.4426L5.73684 23.4805L5.77528 23.5184L5.80859 23.5562L5.84698 23.5887L5.89136 23.6212L5.93536 23.6537L5.97931 23.6807L6.02362 23.7077L6.07326 23.7294L6.12276 23.7511L6.17258 23.7727L6.22771 23.7889L6.28279 23.8052L6.33823 23.816L6.3933 23.8268L6.44837 23.8322L6.509 23.8377H6.56964H6.63577L6.69677 23.8322L6.75741 23.8268L6.81248 23.8214L6.86755 23.8105L6.92299 23.7997L6.97806 23.7836L7.02757 23.7727L7.0772 23.7511L7.12152 23.7294L7.17102 23.7077L7.20978 23.6861L7.25385 23.659V23.6049V23.5509V23.4967V23.4426V23.383V23.3289V23.2748V23.2207V23.1666H7.19872H7.1489H7.09376H7.03869H6.98362H6.93374H6.87861H6.82354H6.76847H6.71865H6.66352H6.60845H6.55332H6.5035H6.44837V23.1125V23.0638V23.0096V22.9555V22.9014V22.8527V22.7986V22.7444V22.6903V22.6416V22.5875V22.5334V22.4792V22.4305V22.3767H6.5035H6.55888H6.61401H6.66902H6.72416H6.77923H6.83467H6.88974H6.94481H6.99994H7.05532H7.11039H7.16546H7.22053H7.27598H7.33111H7.38618H7.44125H7.49663H7.55176H7.60683H7.6619H7.71728H7.77242H7.82749H7.88256H7.938H7.99307H8.0482H8.10327H8.15865H8.21372H8.26886V22.4305V22.4846V22.5388V22.5875V22.6416V22.6957V22.7498V22.8039V22.8581V22.9068V22.9609V23.015V23.0691V23.1233V23.1774V23.2315V23.2802V23.3343V23.3885V23.4426V23.4967V23.5509V23.6049V23.6537V23.7077V23.7619V23.816V23.8701V23.9242V23.973V24.0271V24.0812V24.1353L8.23041 24.1677Z" fill="white"/>
<path d="M6.45617 11.8183H8.84708V10.012H6.45617V6.32453H8.94226V4.51827H4.42584V17.5543H8.98009V15.748H6.45617V11.8183Z" fill="white"/>
<path d="M23.5816 12.2096V15.1521C23.5816 15.6736 23.3348 15.9155 22.8228 15.9155H22.443C21.9118 15.9155 21.665 15.6736 21.665 15.1521V6.92045C21.665 6.39901 21.9118 6.15706 22.443 6.15706H22.7846C23.297 6.15706 23.5438 6.39901 23.5438 6.92045V9.47205H25.5361V6.80871C25.5361 5.18867 24.739 4.40645 23.0885 4.40645H22.1015C20.4508 4.40645 19.6346 5.20715 19.6346 6.82748V15.245C19.6346 16.8654 20.4508 17.666 22.1015 17.666H23.1073C24.7583 17.666 25.5741 16.8654 25.5741 15.245V12.2096H23.5816Z" fill="white"/>
<path d="M16.5309 17.5543H18.5615V4.51821H16.5309V17.5543Z" fill="white"/>
<path d="M13.5846 10.3099C13.5846 10.8314 13.3381 11.0737 12.8257 11.0737H11.9907V6.26882H12.8257C13.3381 6.26882 13.5846 6.51083 13.5846 7.03221V10.3099ZM13.1481 4.51821H9.96027V17.5543H11.9907V12.8239H13.1481C14.7991 12.8239 15.6149 12.0233 15.6149 10.4033V6.93924C15.6149 5.3189 14.7991 4.51821 13.1481 4.51821Z" fill="white"/>
<path fill-rule="evenodd" clip-rule="evenodd" d="M9.21576 29.3416H20.839L14.9063 31.2524L9.21576 29.3416Z" fill="white"/>
</g>
<defs>
<clipPath id="clip0">
<rect width="30" height="34" fill="white"/>
</clipPath>
</defs>
</svg>
