<svg width="90" height="28" viewBox="0 0 90 28" fill="none" xmlns="http://www.w3.org/2000/svg">
<path d="M28.8315 23.6509V19.8892C28.8315 19.605 28.9312 19.3633 29.1304 19.1641C29.3296 18.9619 29.5713 18.8608 29.8555 18.8608H33.7446V19.9683H30.3521C30.2671 19.9683 30.1924 19.999 30.1279 20.0605C30.0664 20.1221 30.0356 20.1938 30.0356 20.2759V23.1543C30.0356 23.2363 30.0664 23.3081 30.1279 23.3696L30.5586 23.8047C30.6172 23.8633 30.6919 23.8926 30.7827 23.8926H32.4307C32.5156 23.8926 32.5874 23.8633 32.646 23.8047C32.7075 23.7432 32.7383 23.6699 32.7383 23.585V22.4819H31.2881V21.3745H33.9512V23.9849C33.9512 24.2632 33.8516 24.502 33.6523 24.7012C33.4531 24.9004 33.2114 25 32.9272 25H30.1895C30.0986 25 30.0239 24.9707 29.9653 24.9121L28.9194 23.8662C28.8608 23.8076 28.8315 23.7358 28.8315 23.6509ZM35.1245 25V18.8608H39.4268V19.9507H36.3242V21.3921H38.8159V22.4819H36.3242V23.9102H39.4268V25H35.1245ZM40.2837 25V18.8608H44.5859V19.9507H41.4834V21.3921H43.9751V22.4819H41.4834V25H40.2837ZM45.355 23.9849V19.8892C45.355 19.605 45.4546 19.3633 45.6538 19.1641C45.853 18.9619 46.0918 18.8608 46.3701 18.8608H49.4463C49.7246 18.8608 49.9634 18.9619 50.1626 19.1641C50.3647 19.3633 50.4658 19.605 50.4658 19.8892V23.9849C50.4658 24.2661 50.3662 24.5063 50.167 24.7056C49.9678 24.9019 49.7275 25 49.4463 25H46.3701C46.0889 25 45.8486 24.9019 45.6494 24.7056C45.4531 24.5063 45.355 24.2661 45.355 23.9849ZM46.5415 23.6069C46.5415 23.6919 46.5708 23.7637 46.6294 23.8223C46.6909 23.8809 46.7642 23.9102 46.8491 23.9102H48.9717C49.0566 23.9102 49.1284 23.8809 49.187 23.8223C49.2485 23.7637 49.2793 23.6919 49.2793 23.6069V20.2671C49.2793 20.1821 49.2485 20.1089 49.187 20.0474C49.1284 19.9829 49.0566 19.9507 48.9717 19.9507H46.8491C46.7642 19.9507 46.6909 19.9829 46.6294 20.0474C46.5708 20.1089 46.5415 20.1821 46.5415 20.2671V23.6069ZM51.5425 25V18.8608H55.2251C55.5093 18.8608 55.751 18.9619 55.9502 19.1641C56.1494 19.3633 56.249 19.605 56.249 19.8892V21.4712C56.249 21.7554 56.1494 21.9985 55.9502 22.2007C55.751 22.3999 55.5093 22.4995 55.2251 22.4995H55.1504L56.6533 25H55.3701L53.854 22.4995H52.729V25H51.5425ZM52.729 21.4097H54.7285C54.8135 21.4097 54.8853 21.3804 54.9438 21.3218C55.0054 21.2603 55.0361 21.187 55.0361 21.1021V20.2671C55.0361 20.1821 55.0054 20.1089 54.9438 20.0474C54.8853 19.9829 54.8135 19.9507 54.7285 19.9507H52.729V21.4097ZM57.3345 23.9849V19.8892C57.3345 19.605 57.4341 19.3633 57.6333 19.1641C57.8325 18.9619 58.0742 18.8608 58.3584 18.8608H61.4258V19.9507H58.8286C58.7437 19.9507 58.6704 19.9814 58.6089 20.043C58.5503 20.1045 58.521 20.1763 58.521 20.2583V23.6069C58.521 23.6919 58.5503 23.7637 58.6089 23.8223C58.6704 23.8809 58.7437 23.9102 58.8286 23.9102H61.4258V25H58.3584C58.0742 25 57.8325 24.9004 57.6333 24.7012C57.4341 24.502 57.3345 24.2632 57.3345 23.9849ZM62.4585 25V18.8608H66.7607V19.9507H63.6582V21.3921H66.1499V22.4819H63.6582V23.9102H66.7607V25H62.4585ZM69.5952 24.9912V18.8521H70.8213L73.5898 22.9302V18.8521H74.7808V24.9912H73.5547L70.7817 20.9219V24.9912H69.5952ZM75.8618 23.9849V19.8892C75.8618 19.605 75.9614 19.3633 76.1606 19.1641C76.3599 18.9619 76.5986 18.8608 76.877 18.8608H79.9531C80.2314 18.8608 80.4702 18.9619 80.6694 19.1641C80.8716 19.3633 80.9727 19.605 80.9727 19.8892V23.9849C80.9727 24.2661 80.873 24.5063 80.6738 24.7056C80.4746 24.9019 80.2344 25 79.9531 25H76.877C76.5957 25 76.3555 24.9019 76.1562 24.7056C75.96 24.5063 75.8618 24.2661 75.8618 23.9849ZM77.0483 23.6069C77.0483 23.6919 77.0776 23.7637 77.1362 23.8223C77.1978 23.8809 77.271 23.9102 77.356 23.9102H79.4785C79.5635 23.9102 79.6353 23.8809 79.6938 23.8223C79.7554 23.7637 79.7861 23.6919 79.7861 23.6069V20.2671C79.7861 20.1821 79.7554 20.1089 79.6938 20.0474C79.6353 19.9829 79.5635 19.9507 79.4785 19.9507H77.356C77.271 19.9507 77.1978 19.9829 77.1362 20.0474C77.0776 20.1089 77.0483 20.1821 77.0483 20.2671V23.6069ZM81.3242 18.8521H82.6558L83.8555 23.04L85.042 18.8521H86.0483L87.3184 23.04L88.4434 18.8521H89.6694L87.8149 25H86.769L85.521 21.0405L84.3389 25H83.2974L81.3242 18.8521Z" fill="white"/>
<g clip-path="url(#clip0)">
<path d="M61.7226 15.2759V15.1104H61.8303C61.8873 15.1104 61.9697 15.1165 61.9697 15.184C61.9697 15.2514 61.9253 15.2759 61.8557 15.2759H61.7226ZM61.7226 15.3924H61.7987L61.9697 15.6805H62.1534L61.9634 15.3801C62.0584 15.3863 62.1344 15.3188 62.1407 15.2269V15.2024C62.1407 15.043 62.0267 14.9939 61.8367 14.9939H61.5643V15.6805H61.7226V15.3924ZM62.5208 15.3372C62.5208 14.9326 62.1977 14.6997 61.8367 14.6997C61.4756 14.6997 61.1525 14.9326 61.1525 15.3372C61.1525 15.7418 61.4756 15.9748 61.8367 15.9748C62.1977 15.9748 62.5208 15.7418 62.5208 15.3372ZM62.3181 15.3372C62.3308 15.5947 62.1217 15.8154 61.8557 15.8276H61.8367C61.5579 15.8399 61.3236 15.6253 61.3109 15.3556C61.2982 15.0859 61.5199 14.8591 61.7987 14.8468C62.0774 14.8345 62.3118 15.0491 62.3244 15.3188C62.3181 15.325 62.3181 15.3311 62.3181 15.3372Z" fill="black"/>
<path d="M37.4042 8.52651V15.7602H39.5137V8.52651H37.4042ZM20.8077 8.51425V15.7541H22.9361V10.1326L24.5957 10.1388C25.1405 10.1388 25.5206 10.2675 25.7803 10.5372C26.116 10.8805 26.2491 11.4384 26.2491 12.4499V15.7541H28.3141V11.7571C28.3141 8.90046 26.4328 8.51425 24.5957 8.51425H20.8077ZM40.8059 8.52651V15.7602H44.2266C46.0509 15.7602 46.6464 15.4659 47.2862 14.81C47.7423 14.3502 48.0336 13.3326 48.0336 12.223C48.0336 11.2054 47.7866 10.2981 47.3495 9.73417C46.5767 8.72268 45.4491 8.52651 43.7641 8.52651H40.8059ZM42.8963 10.0959H43.8022C45.1197 10.0959 45.9686 10.666 45.9686 12.1495C45.9686 13.633 45.1197 14.2092 43.8022 14.2092H42.8963V10.0959ZM34.3637 8.52651L32.6026 14.2583L30.9176 8.52651H28.6372L31.0443 15.7602H34.0849L36.5174 8.52651H34.3637ZM49.0218 15.7602H51.1313V8.52651H49.0218V15.7602ZM54.9383 8.52651L51.9928 15.7541H54.0705L54.5392 14.4728H58.0233L58.4667 15.7479H60.7281L57.7572 8.52651H54.9383ZM56.3066 9.84451L57.5862 13.2284H54.989L56.3066 9.84451Z" fill="black"/>
<path d="M7.19469 9.72806V8.73496C7.29604 8.72883 7.39739 8.7227 7.49874 8.7227C10.3113 8.63688 12.1547 11.0644 12.1547 11.0644C12.1547 11.0644 10.1656 13.7372 8.03085 13.7372C7.74579 13.7372 7.46707 13.6943 7.20102 13.6085V10.5924C8.2969 10.7212 8.51861 11.1871 9.17107 12.2476L10.6344 11.0583C10.6344 11.0583 9.56381 9.70354 7.7648 9.70354C7.57476 9.69741 7.38472 9.70967 7.19469 9.72806ZM7.19469 6.44226V7.92577L7.49874 7.90738C11.4072 7.77865 13.96 11.0093 13.96 11.0093C13.96 11.0093 11.0334 14.4545 7.98651 14.4545C7.72046 14.4545 7.46074 14.4299 7.20102 14.387V15.3066C7.4164 15.3311 7.63811 15.3495 7.85348 15.3495C10.6914 15.3495 12.7438 13.9457 14.7328 12.2905C15.0622 12.548 16.4115 13.1671 16.6902 13.4368C14.8025 14.9694 10.4 16.2016 7.90416 16.2016C7.66344 16.2016 7.4354 16.1893 7.20736 16.1648V17.4583H17.9888V6.44226H7.19469V6.44226ZM7.19469 13.6085V14.3932C4.57218 13.9395 3.8437 11.2974 3.8437 11.2974C3.8437 11.2974 5.10428 9.94875 7.19469 9.72806V10.5863H7.18835C6.09247 10.4576 5.23097 11.4507 5.23097 11.4507C5.23097 11.4507 5.71873 13.1242 7.19469 13.6085ZM2.53878 11.1871C2.53878 11.1871 4.09075 8.96791 7.20102 8.73496V7.92577C3.75502 8.1955 0.777771 11.0154 0.777771 11.0154C0.777771 11.0154 2.46277 15.7357 7.19469 16.1648V15.3066C3.72334 14.8897 2.53878 11.1871 2.53878 11.1871Z" fill="#76B900"/>
</g>
<defs>
<clipPath id="clip0">
<rect width="61.743" height="23.9005" fill="white" transform="translate(0.777771)"/>
</clipPath>
</defs>
</svg>
