<svg width="39" height="36" viewBox="0 0 39 36" fill="none" xmlns="http://www.w3.org/2000/svg">
<path d="M35.5588 36H3.44118C2.52852 36 1.65324 35.6329 1.0079 34.9796C0.362551 34.3262 0 33.4401 0 32.5161L0 3.48387C0 2.55989 0.362551 1.67375 1.0079 1.0204C1.65324 0.36705 2.52852 0 3.44118 0L35.5588 0C36.4715 0 37.3468 0.36705 37.9921 1.0204C38.6374 1.67375 39 2.55989 39 3.48387V32.5161C39 33.4401 38.6374 34.3262 37.9921 34.9796C37.3468 35.6329 36.4715 36 35.5588 36ZM4.58824 28.4516C4.58824 28.9136 4.76951 29.3567 5.09218 29.6833C5.41486 30.01 5.8525 30.1935 6.30882 30.1935H12.6176V27.871H7.45588C7.30377 27.871 7.15789 27.8098 7.05034 27.7009C6.94278 27.592 6.88235 27.4443 6.88235 27.2903V23.8065C6.88235 23.6525 6.94278 23.5048 7.05034 23.3959C7.15789 23.287 7.30377 23.2258 7.45588 23.2258H12.6176V20.9032H6.30882C5.8525 20.9032 5.41486 21.0868 5.09218 21.4134C4.76951 21.7401 4.58824 22.1832 4.58824 22.6452V28.4516ZM13.7647 7.54839C13.7647 7.0864 13.5834 6.64333 13.2608 6.31665C12.9381 5.98998 12.5004 5.80645 12.0441 5.80645H6.30882C5.8525 5.80645 5.41486 5.98998 5.09218 6.31665C4.76951 6.64333 4.58824 7.0864 4.58824 7.54839V13.3548C4.58824 13.8168 4.76951 14.2599 5.09218 14.5866C5.41486 14.9132 5.8525 15.0968 6.30882 15.0968H10.3235V12.7742H7.45588C7.30377 12.7742 7.15789 12.713 7.05034 12.6041C6.94278 12.4952 6.88235 12.3475 6.88235 12.1935V8.70968C6.88235 8.55568 6.94278 8.40799 7.05034 8.2991C7.15789 8.19021 7.30377 8.12903 7.45588 8.12903H10.8971C11.0492 8.12903 11.195 8.19021 11.3026 8.2991C11.4102 8.40799 11.4706 8.55568 11.4706 8.70968V15.6774C11.4706 15.8314 11.4102 15.9791 11.3026 16.088C11.195 16.1969 11.0492 16.2581 10.8971 16.2581H4.58824V18.5806H12.0441C12.5004 18.5806 12.9381 18.3971 13.2608 18.0704C13.5834 17.7438 13.7647 17.3007 13.7647 16.8387V7.54839ZM13.7647 22.6452V28.4516C13.7647 28.9136 13.946 29.3567 14.2687 29.6833C14.5913 30.01 15.029 30.1935 15.4853 30.1935H21.2206C21.6769 30.1935 22.1146 30.01 22.4372 29.6833C22.7599 29.3567 22.9412 28.9136 22.9412 28.4516V22.6452C22.9412 22.1832 22.7599 21.7401 22.4372 21.4134C22.1146 21.0868 21.6769 20.9032 21.2206 20.9032H15.4853C15.029 20.9032 14.5913 21.0868 14.2687 21.4134C13.946 21.7401 13.7647 22.1832 13.7647 22.6452ZM24.0882 7.54839C24.0882 7.0864 23.907 6.64333 23.5843 6.31665C23.2616 5.98998 22.824 5.80645 22.3676 5.80645H16.6324C16.176 5.80645 15.7384 5.98998 15.4157 6.31665C15.093 6.64333 14.9118 7.0864 14.9118 7.54839V13.3548C14.9118 13.8168 15.093 14.2599 15.4157 14.5866C15.7384 14.9132 16.176 15.0968 16.6324 15.0968H22.3676C22.824 15.0968 23.2616 14.9132 23.5843 14.5866C23.907 14.2599 24.0882 13.8168 24.0882 13.3548V7.54839ZM34.4118 7.54839C34.4118 7.0864 34.2305 6.64333 33.9078 6.31665C33.5851 5.98998 33.1475 5.80645 32.6912 5.80645H26.9559C26.4996 5.80645 26.0619 5.98998 25.7392 6.31665C25.4166 6.64333 25.2353 7.0864 25.2353 7.54839V13.3548C25.2353 13.8168 25.4166 14.2599 25.7392 14.5866C26.0619 14.9132 26.4996 15.0968 26.9559 15.0968H30.9706V12.7742H28.1029C27.9508 12.7742 27.805 12.713 27.6974 12.6041C27.5898 12.4952 27.5294 12.3475 27.5294 12.1935V8.70968C27.5294 8.55568 27.5898 8.40799 27.6974 8.2991C27.805 8.19021 27.9508 8.12903 28.1029 8.12903H31.5441C31.6962 8.12903 31.8421 8.19021 31.9497 8.2991C32.0572 8.40799 32.1176 8.55568 32.1176 8.70968V15.6774C32.1176 15.8314 32.0572 15.9791 31.9497 16.088C31.8421 16.1969 31.6962 16.2581 31.5441 16.2581H25.2353V18.5806H32.6912C33.1475 18.5806 33.5851 18.3971 33.9078 18.0704C34.2305 17.7438 34.4118 17.3007 34.4118 16.8387V7.54839ZM34.4118 20.9032H25.8088C25.3525 20.9032 24.9149 21.0868 24.5922 21.4134C24.2695 21.7401 24.0882 22.1832 24.0882 22.6452V30.1935H26.3824V23.8065C26.3824 23.6525 26.4428 23.5048 26.5503 23.3959C26.6579 23.287 26.8038 23.2258 26.9559 23.2258H28.1029V30.1935H30.3971V23.2258H32.1176V30.1935H34.4118V20.9032ZM21.2206 12.7742H17.7794C17.6273 12.7742 17.4814 12.713 17.3739 12.6041C17.2663 12.4952 17.2059 12.3475 17.2059 12.1935V8.70968C17.2059 8.55568 17.2663 8.40799 17.3739 8.2991C17.4814 8.19021 17.6273 8.12903 17.7794 8.12903H21.2206C21.3727 8.12903 21.5186 8.19021 21.6261 8.2991C21.7337 8.40799 21.7941 8.55568 21.7941 8.70968V12.1935C21.7941 12.3475 21.7337 12.4952 21.6261 12.6041C21.5186 12.713 21.3727 12.7742 21.2206 12.7742ZM16.6324 23.2258H20.0735C20.2256 23.2258 20.3715 23.287 20.4791 23.3959C20.5866 23.5048 20.6471 23.6525 20.6471 23.8065V27.2903C20.6471 27.4443 20.5866 27.592 20.4791 27.7009C20.3715 27.8098 20.2256 27.871 20.0735 27.871H16.6324C16.4802 27.871 16.3344 27.8098 16.2268 27.7009C16.1192 27.592 16.0588 27.4443 16.0588 27.2903V23.8065C16.0588 23.6525 16.1192 23.5048 16.2268 23.3959C16.3344 23.287 16.4802 23.2258 16.6324 23.2258Z" fill="white"/>
</svg>
