<svg width="38" height="34" viewBox="0 0 38 34" fill="none" xmlns="http://www.w3.org/2000/svg">
<g clip-path="url(#clip0)">
<path d="M28.416 16.8208C26.6449 20.7357 23.0007 22.7847 19.1085 22.7373C11.6423 22.3766 9.47048 13.9793 14.4601 10.9476L14.6796 11.1614C14.5944 11.2703 14.3048 11.499 13.8383 12.388C13.2947 13.4684 13.129 14.5452 13.1933 15.2188C13.5817 21.0888 22.0139 22.2826 24.9184 16.4799C28.6153 8.52003 18.8161 0.436194 10.1155 6.61451L9.91459 6.41893C12.2031 2.92179 16.6747 1.35659 20.9456 2.40236C27.4764 3.99261 30.9824 10.627 28.416 16.8208ZM21.4354 16.6947C20.8308 17.5422 19.8241 18.0973 18.6842 18.0973C16.8352 18.0973 15.3363 16.6375 15.3363 14.8367C15.3363 13.1155 16.7057 11.706 18.4413 11.5848V11.5848C19.5221 11.5425 20.5293 12.1113 21.0089 13.0337C21.5258 14.0282 21.3366 15.2548 20.5314 16.0819C20.8327 16.2862 21.134 16.4905 21.4354 16.6947V16.6947ZM9.75547 14.5413C9.59408 15.8363 9.69468 16.2406 9.69429 16.3946L9.39894 16.4992C9.28727 16.2862 9.00361 15.5359 8.87862 14.5275C8.55903 10.6776 11.2525 7.20825 15.3527 6.56245C19.1133 6.02419 22.7088 8.2988 23.551 11.4826L23.2548 11.5876C23.1668 11.4928 23.0097 11.2351 22.4413 10.674C17.9062 6.23685 10.7784 8.272 9.75547 14.5413ZM31.2642 12.4063C30.9958 -0.316846 13.6441 -5.05868 6.96372 6.86398C7.25897 7.07201 7.66734 7.35351 7.96257 7.56147C7.45077 8.6083 7.10963 9.67464 6.923 10.7375C6.7932 11.4342 6.72507 12.1519 6.72507 12.8851C6.72507 19.4876 12.2207 24.84 19 24.84C25.7792 24.84 31.2749 19.4876 31.2749 12.8851C31.2749 12.7247 31.2707 12.5652 31.2642 12.4063Z" fill="white"/>
<path d="M38 28.4711H36.041V33.8832H34.5217V28.4711H32.5528V27.0694H38V28.4711ZM28.7015 28.4711V30.0481H31.6701V31.1772H28.7015V33.8832H27.1825V27.0694H31.9699V28.4711H28.7015ZM25.024 30.4763C25.024 29.2498 24.2244 28.3543 23.005 28.3543C22.2954 28.3543 21.7657 28.6171 21.4459 28.9578L21.6857 29.1915C21.3159 29.4932 20.9861 29.9118 20.9861 30.6613C20.9861 31.6931 21.7357 32.5983 23.005 32.5983C24.2244 32.5983 25.024 31.7028 25.024 30.4763ZM26.5631 30.4763C26.5631 32.4816 25.0839 34 23.005 34C20.8762 34 19.4469 32.5107 19.4469 30.7099C19.4469 29.5418 19.9167 28.695 20.6063 28.1401L20.3664 27.9065C20.8962 27.3712 21.8656 26.9526 23.005 26.9526C25.0839 26.9526 26.5631 28.4905 26.5631 30.4763ZM17.2056 29.8241C18.4049 30.233 19.0246 30.7586 19.0246 31.8099C19.0246 33.2213 17.9152 34 16.6059 34C15.3965 34 14.467 33.4744 14.0772 32.501L15.2866 31.625C15.5065 32.2382 16.0761 32.6179 16.6459 32.6179C17.1456 32.6179 17.5054 32.355 17.5054 31.917C17.5054 31.5081 17.2355 31.2551 16.2361 30.9047C15.1566 30.5249 14.357 29.9994 14.357 28.8702C14.357 27.7799 15.2866 26.9526 16.6359 26.9526C17.7052 26.9526 18.5349 27.3712 18.9247 28.1985L17.7152 29.0161C17.4854 28.51 17.1256 28.2278 16.5759 28.2278C16.1161 28.2278 15.7764 28.4711 15.7764 28.8215C15.7764 29.2206 16.1561 29.4639 17.2056 29.8241ZM12.015 27.0694H13.5341V33.8832H12.015V27.0694ZM8.88772 32.5788C9.53734 32.5788 9.90718 32.2868 9.90718 31.7223C9.90718 31.1577 9.53734 30.8657 8.88772 30.8657H8.0482V32.5788H8.88772ZM8.0482 28.3738V29.8144H8.84783C9.3175 29.8144 9.63732 29.5516 9.63732 29.094C9.63732 28.6366 9.3175 28.3738 8.84783 28.3738H8.0482ZM11.4264 31.8585C11.4264 33.0364 10.4769 33.8832 8.94773 33.8832H6.52899V27.0694H8.8578C10.207 27.0694 11.0966 27.7021 11.0966 28.7144C11.0966 29.4834 10.7268 29.9507 10.177 30.1745C10.9166 30.4471 11.4264 30.9436 11.4264 31.8585ZM5.77693 27.0694V31.1577C5.77693 32.7833 4.75746 34 2.88846 34C1.01946 34 0 32.7833 0 31.1577V27.0694H1.5192V31.0408C1.5192 32.0338 1.99895 32.5983 2.88846 32.5983C3.77797 32.5983 4.25771 32.0338 4.25771 31.0408V27.0694H5.77693Z" fill="white"/>
</g>
<defs>
<clipPath id="clip0">
<rect width="38" height="34" fill="white"/>
</clipPath>
</defs>
</svg>
