<svg width="63" height="9" viewBox="0 0 63 9" fill="none" xmlns="http://www.w3.org/2000/svg">
<path fill-rule="evenodd" clip-rule="evenodd" d="M0.722 0H6.5L5.0555 2.5H0.722L0 1.25L0.722 0ZM1.5 4H4.357L6.5 7.75L5.7855 9H4.357L1.5 4ZM8.25 0H9.75L10.5 1.3L7.5 6.5L6 3.9L8.25 0ZM22.537 1.7885H24.5755L21.0965 7.5H19.479L16 1.7885H18.116L20.332 5.7285L22.537 1.7885ZM30.0815 6.1045C30.6685 6.1045 30.857 5.9325 30.857 5.3635V3.925C30.857 3.356 30.6685 3.184 30.0815 3.184H27.489C26.9015 3.184 26.713 3.356 26.713 3.925V5.3635C26.713 5.9325 26.9015 6.1045 27.489 6.1045H30.0815ZM26.8015 7.4995C25.439 7.4995 24.874 6.963 24.874 5.632V3.6565C24.874 2.325 25.439 1.7885 26.802 1.7885H30.7685C32.131 1.7885 32.6965 2.325 32.6965 3.6565V5.6315C32.6965 6.963 32.1315 7.5 30.7685 7.5H26.802L26.8015 7.4995ZM38.935 1.789V3.165H37.0735C36.575 3.165 36.1985 3.2725 35.921 3.4765L35.578 3.734V7.5H33.7385V1.7885H35.0685L35.2675 2.5935L35.312 2.5615C35.6995 2.2285 36.043 2.0245 36.331 1.928C36.608 1.8315 37.0405 1.788 37.6055 1.788H38.935V1.789ZM45.715 3.152H42.657V5.503C42.657 5.943 42.8235 6.104 43.2775 6.104H45.715V7.5H42.48C41.3385 7.5 40.818 7.006 40.818 5.89V3.1515H39.7815V1.7885H40.818L41.184 0.5H42.6575V1.7885H45.7155V3.152H45.715ZM48.341 3.956H52.4295V3.775C52.4295 3.206 52.241 3.0345 51.654 3.0345H49.1165C48.5295 3.0345 48.3415 3.206 48.3415 3.775V3.9565L48.341 3.956ZM52.2855 1.7885C53.648 1.7885 54.2135 2.325 54.2135 3.6565V5.0825H48.3415V5.4805C48.3415 6.05 48.53 6.147 49.117 6.147H51.8095C52.2635 6.147 52.4295 6.0605 52.4295 5.6205V5.5445H54.214V5.8895C54.214 7.006 53.693 7.4995 52.552 7.4995H48.419C47.056 7.4995 46.491 6.963 46.491 5.632V3.6565C46.491 2.325 47.056 1.7885 48.419 1.7885H52.286H52.2855ZM54.369 7.5L57.3715 4.5905L54.4795 1.7885H56.9725L58.7455 3.6135L60.518 1.7885H62.889L60.0085 4.5905L63 7.5H60.507L58.6345 5.5565L56.751 7.5H54.369Z" fill="white"/>
</svg>
